<svg width="159" height="40" viewBox="0 0 159 40" fill="none" xmlns="http://www.w3.org/2000/svg">
<path d="M18.6312 35.352C10.7855 34.6461 4.63589 28.0564 4.63589 20.0272C4.63589 11.527 11.5267 4.63621 20.0268 4.63621C28.0564 4.63621 34.6464 10.7859 35.3517 18.6315H39.9997C39.2827 8.22292 30.6177 0 20.0268 0C8.9663 0 0 8.96662 0 20.0272C0 30.618 8.22292 39.283 18.6315 40L18.6312 35.352Z" fill="#DFDFDF"/>
<path d="M35.3518 21.4224C34.6875 28.8083 28.8081 34.6877 21.4222 35.352V39.9999C31.3694 39.3147 39.3145 31.3696 39.9998 21.4224H35.3518Z" fill="#DFDFDF"/>
<path d="M51.6392 24.063V3.16223H65.563V6.07638H54.9359V12.3175H63.826V15.0554H54.9359V24.063H51.6392Z" fill="#DFDFDF"/>
<path d="M76.3955 13.8775H82.1654C82.636 13.8775 83.0634 13.7746 83.4461 13.5688C83.8287 13.3624 84.1567 13.0782 84.4321 12.7146C84.7067 12.3517 84.9224 11.9347 85.0795 11.4638C85.2364 10.9926 85.3152 10.4924 85.3152 9.96212C85.3152 9.43245 85.2215 8.93231 85.0354 8.46107C84.8487 7.99015 84.6039 7.57829 84.2996 7.22486C83.9954 6.87174 83.642 6.59198 83.24 6.38558C82.8373 6.1798 82.4201 6.0766 81.9888 6.0766H76.3955V13.8775ZM73.0988 24.0629V3.16214H82.1949C83.1368 3.16214 84.005 3.3587 84.7998 3.75119C85.5949 4.144 86.2764 4.65907 86.8457 5.29638C87.4151 5.93434 87.8613 6.66089 88.1852 7.47477C88.5091 8.2896 88.6707 9.11903 88.6707 9.96212C88.6707 10.669 88.5726 11.346 88.3766 11.9935C88.1804 12.6413 87.9054 13.2402 87.5523 13.7892C87.1989 14.3389 86.7673 14.8152 86.2573 15.2169C85.7467 15.6196 85.1875 15.919 84.5791 16.1149L89.4954 24.0629H85.7566L81.2232 16.7923H76.3955V24.0629H73.0988Z" fill="#DFDFDF"/>
<path d="M111.309 21.1488V24.063H96.9725V3.16226H111.043V6.07641H100.269V12.0228H109.601V14.7607H100.269V21.1488H111.309Z" fill="#DFDFDF"/>
<path d="M131.061 8.07838C130.865 7.86276 130.58 7.63222 130.207 7.38676C129.835 7.14161 129.398 6.91076 128.897 6.69482C128.397 6.47921 127.847 6.30233 127.249 6.16515C126.65 6.02797 126.037 5.95906 125.409 5.95906C124.015 5.95906 122.99 6.21405 122.333 6.72404C121.675 7.23465 121.347 7.9412 121.347 8.84367C121.347 9.35429 121.449 9.77123 121.656 10.0951C121.862 10.419 122.181 10.7036 122.613 10.9487C123.044 11.1942 123.584 11.4101 124.231 11.5962C124.879 11.7829 125.634 11.9839 126.499 12.1998C127.558 12.4552 128.514 12.7397 129.369 13.0534C130.222 13.3675 130.943 13.7501 131.532 14.2014C132.121 14.6532 132.577 15.2073 132.901 15.8647C133.224 16.5223 133.386 17.3219 133.386 18.2641C133.386 19.3237 133.185 20.236 132.783 21.0013C132.38 21.7673 131.831 22.3903 131.135 22.8707C130.437 23.3521 129.628 23.7053 128.706 23.9307C127.784 24.1559 126.793 24.2692 125.733 24.2692C124.143 24.2692 122.607 24.0292 121.126 23.5481C119.644 23.0676 118.305 22.3658 117.108 21.443L118.609 18.6172C118.863 18.8725 119.231 19.1573 119.713 19.4708C120.194 19.7848 120.753 20.0744 121.391 20.3396C122.028 20.6041 122.72 20.8299 123.466 21.0163C124.212 21.2033 124.987 21.296 125.792 21.296C127.087 21.296 128.088 21.0706 128.794 20.6187C129.501 20.1675 129.854 19.5 129.854 18.6172C129.854 18.0872 129.722 17.6455 129.456 17.2924C129.192 16.9393 128.813 16.63 128.323 16.3648C127.833 16.1003 127.234 15.8602 126.528 15.6437C125.821 15.4284 125.016 15.2023 124.114 14.9666C123.073 14.6923 122.166 14.4027 121.391 14.0985C120.615 13.7943 119.973 13.4262 119.463 12.9947C118.952 12.5631 118.565 12.0579 118.299 11.4787C118.035 10.9001 117.902 10.198 117.902 9.37398C117.902 8.35369 118.098 7.44551 118.491 6.65068C118.883 5.85586 119.419 5.18901 120.096 4.64886C120.772 4.10934 121.572 3.70225 122.494 3.42757C123.417 3.15289 124.418 3.01539 125.497 3.01539C126.91 3.01539 128.215 3.24117 129.413 3.6924C130.609 4.14396 131.66 4.70316 132.562 5.37064L131.061 8.07838Z" fill="#DFDFDF"/>
<path d="M158.261 3.16226V24.063H154.934V14.849H144.396V24.063H141.099V3.16226H144.396V11.9053H154.934V3.16226H158.261Z" fill="#DFDFDF"/>
<path d="M52.2935 32.7989H55.4401C55.7402 32.7989 56.0095 32.7367 56.2489 32.6122C56.4886 32.4881 56.6925 32.3217 56.8589 32.1114C57.0259 31.9019 57.1545 31.6621 57.2447 31.3922C57.3343 31.1229 57.3794 30.8425 57.3794 30.5513C57.3794 30.2516 57.326 29.967 57.2187 29.6974C57.1117 29.4275 56.9662 29.19 56.7821 28.9845C56.5979 28.7788 56.3842 28.6165 56.14 28.4965C55.8964 28.3764 55.637 28.3167 55.3632 28.3167H52.2935V32.7989ZM51.639 36.8439V27.7258H55.3887C55.7742 27.7258 56.1289 27.8071 56.4547 27.97C56.7801 28.1326 57.0605 28.3485 57.2962 28.6187C57.5312 28.888 57.7153 29.1925 57.8481 29.5304C57.9805 29.8683 58.0472 30.209 58.0472 30.5513C58.0472 30.9194 57.9849 31.2744 57.8608 31.617C57.7366 31.9593 57.561 32.2636 57.3343 32.5287C57.1072 32.7942 56.8354 33.006 56.5191 33.1648C56.2022 33.3229 55.851 33.4016 55.4658 33.4016H52.2935V36.8439H51.639Z" fill="#DFDFDF"/>
<path d="M66.6898 32.7989H69.8875C70.1784 32.7989 70.4442 32.7342 70.6836 32.6059C70.9234 32.4773 71.1288 32.3083 71.3003 32.0987C71.4711 31.8892 71.602 31.6494 71.6922 31.3792C71.7817 31.1102 71.8268 30.8336 71.8268 30.5513C71.8268 30.2605 71.7731 29.9797 71.6661 29.7101C71.5588 29.4402 71.414 29.2027 71.2295 28.9972C71.0453 28.7921 70.8313 28.6267 70.5871 28.5031C70.3432 28.379 70.0803 28.3167 69.7973 28.3167H66.6898V32.7989ZM66.035 36.8439V27.7258H69.8234C70.2086 27.7258 70.5636 27.8071 70.8891 27.97C71.2143 28.1326 71.4946 28.3485 71.7303 28.6187C71.9659 28.888 72.1497 29.1925 72.2825 29.5304C72.4152 29.8683 72.4819 30.209 72.4819 30.5513C72.4819 30.8851 72.4305 31.2083 72.3276 31.5211C72.2247 31.8336 72.0793 32.114 71.8909 32.3617C71.7023 32.61 71.4756 32.8161 71.2104 32.978C70.945 33.1413 70.6538 33.248 70.3369 33.2994L72.6105 36.8439H71.8525L69.6437 33.4016H66.6898V36.8439H66.035Z" fill="#DFDFDF"/>
<path d="M80.8161 32.2848C80.8161 32.8072 80.9034 33.3102 81.079 33.7938C81.2546 34.2774 81.503 34.7058 81.8243 35.0779C82.1454 35.4504 82.5283 35.7477 82.9732 35.9706C83.4184 36.1932 83.9065 36.3043 84.4378 36.3043C84.9855 36.3043 85.4799 36.1887 85.9207 35.9572C86.3618 35.7267 86.7378 35.4206 87.0505 35.0395C87.363 34.6588 87.6053 34.2285 87.7761 33.7487C87.9476 33.2698 88.0337 32.7814 88.0337 32.2848C88.0337 31.7624 87.9432 31.2597 87.7634 30.7758C87.5837 30.2925 87.3332 29.8641 87.0124 29.4916C86.6914 29.1191 86.3122 28.8219 85.8759 28.5996C85.4393 28.3764 84.9595 28.2653 84.4378 28.2653C83.8897 28.2653 83.3927 28.3808 82.9478 28.6123C82.5026 28.8435 82.1216 29.1496 81.8046 29.5304C81.488 29.9114 81.2442 30.3417 81.0727 30.8209C80.9019 31.3004 80.8161 31.7888 80.8161 32.2848ZM84.4244 36.9083C83.7909 36.9083 83.213 36.7752 82.6909 36.5104C82.1689 36.2446 81.7189 35.8979 81.3426 35.4695C80.966 35.0421 80.6751 34.5495 80.469 33.9929C80.2639 33.4362 80.161 32.8675 80.161 32.2848C80.161 31.6773 80.2702 31.0949 80.4887 30.5383C80.7066 29.9819 81.0066 29.4897 81.3874 29.0617C81.7684 28.6336 82.2203 28.2932 82.7424 28.0404C83.2644 27.7883 83.8296 27.6616 84.4378 27.6616C85.0706 27.6616 85.6508 27.7962 86.1776 28.0665C86.7041 28.3358 87.1534 28.6892 87.5259 29.1258C87.8984 29.5621 88.1874 30.0566 88.3928 30.6094C88.5983 31.1613 88.7012 31.7202 88.7012 32.2848C88.7012 32.9011 88.5919 33.4877 88.3735 34.0443C88.1553 34.601 87.8555 35.091 87.4745 35.5146C87.0937 35.9385 86.6422 36.277 86.1195 36.5291C85.5974 36.7816 85.0325 36.9083 84.4244 36.9083Z" fill="#DFDFDF"/>
<path d="M95.6491 35.8932C95.8628 36.0393 96.12 36.1568 96.4194 36.2466C96.7192 36.3365 97.0529 36.3813 97.4213 36.3813C97.9176 36.3813 98.3117 36.2917 98.6026 36.1117C98.8938 35.9319 99.1167 35.6709 99.2704 35.3286C99.4247 34.986 99.5251 34.5646 99.5721 34.0632C99.6194 33.5627 99.6425 32.9959 99.6425 32.3617V27.7258H100.298V32.3617C100.298 33.0553 100.268 33.6872 100.208 34.2559C100.148 34.8259 100.018 35.3114 99.8162 35.7138C99.6146 36.1161 99.3263 36.4289 98.9497 36.6515C98.5727 36.8738 98.0634 36.9849 97.4213 36.9849C96.6506 36.9849 95.9911 36.7969 95.4436 36.42L95.6491 35.8932Z" fill="#DFDFDF"/>
<path d="M115.066 36.2529V36.8439H108.992V27.7258H114.951V28.3167H109.647V31.8996H114.283V32.4646H109.647V36.2529H115.066Z" fill="#DFDFDF"/>
<path d="M122.45 32.2206C122.45 31.6728 122.547 31.1273 122.739 30.5833C122.932 30.04 123.212 29.5541 123.581 29.1258C123.949 28.6977 124.4 28.3487 124.935 28.0791C125.471 27.8095 126.081 27.6746 126.765 27.6746C127.578 27.6746 128.272 27.8607 128.846 28.2335C129.419 28.6056 129.848 29.0829 130.13 29.665L129.591 29.9733C129.428 29.6567 129.238 29.3912 129.019 29.1772C128.801 28.9629 128.565 28.7898 128.313 28.6567C128.06 28.5243 127.797 28.4281 127.523 28.3681C127.249 28.3084 126.98 28.2779 126.714 28.2779C126.132 28.2779 125.618 28.396 125.173 28.6313C124.728 28.867 124.351 29.1724 124.043 29.5494C123.734 29.926 123.501 30.3518 123.343 30.8272C123.184 31.3022 123.105 31.7795 123.105 32.2593C123.105 32.7988 123.199 33.3123 123.388 33.8004C123.576 34.2885 123.833 34.7184 124.158 35.0909C124.484 35.4631 124.869 35.7609 125.314 35.9835C125.759 36.2058 126.239 36.317 126.753 36.317C127.027 36.317 127.309 36.2833 127.6 36.2147C127.891 36.1461 128.17 36.0391 128.435 35.893C128.7 35.7476 128.949 35.5615 129.18 35.3348C129.411 35.1081 129.603 34.8404 129.757 34.532L130.323 34.8016C130.169 35.1446 129.959 35.4485 129.693 35.7136C129.428 35.9791 129.133 36.2014 128.808 36.3814C128.482 36.5612 128.137 36.6964 127.774 36.786C127.409 36.8762 127.052 36.9209 126.701 36.9209C126.076 36.9209 125.505 36.7841 124.987 36.5104C124.469 36.236 124.022 35.8787 123.645 35.4377C123.268 34.9966 122.975 34.4958 122.765 33.9347C122.555 33.3746 122.45 32.8033 122.45 32.2206Z" fill="#DFDFDF"/>
<path d="M144.641 28.3167H141.302V36.8441H140.648V28.3167H137.309V27.726H144.641V28.3167Z" fill="#DFDFDF"/>
<path d="M157.779 29.2414C157.189 28.5825 156.353 28.2526 155.275 28.2526C154.385 28.2526 153.736 28.4215 153.329 28.7597C152.923 29.0982 152.719 29.5539 152.719 30.1277C152.719 30.4185 152.77 30.6602 152.873 30.8533C152.976 31.046 153.136 31.2102 153.355 31.3477C153.574 31.4842 153.849 31.5998 154.184 31.6941C154.517 31.7885 154.919 31.8869 155.391 31.9895C155.879 32.0923 156.322 32.206 156.719 32.3302C157.118 32.4537 157.456 32.61 157.734 32.7989C158.012 32.9869 158.226 33.2181 158.376 33.4921C158.526 33.7658 158.601 34.104 158.601 34.5067C158.601 34.909 158.522 35.2599 158.363 35.5597C158.205 35.8594 157.983 36.11 157.695 36.311C157.409 36.512 157.066 36.6641 156.668 36.767C156.27 36.8692 155.827 36.921 155.339 36.921C153.918 36.921 152.715 36.4672 151.73 35.5597L152.077 35.0328C152.462 35.4358 152.933 35.7546 153.49 35.9899C154.046 36.2256 154.671 36.3431 155.365 36.3431C156.161 36.3431 156.784 36.1976 157.233 35.9064C157.683 35.6155 157.907 35.1748 157.907 34.5835C157.907 34.2837 157.847 34.0294 157.728 33.8195C157.608 33.6096 157.43 33.428 157.195 33.2736C156.959 33.1196 156.661 32.9869 156.303 32.8757C155.943 32.7646 155.523 32.6573 155.044 32.555C154.556 32.4518 154.125 32.3429 153.753 32.227C153.381 32.1114 153.068 31.966 152.816 31.7904C152.563 31.6151 152.373 31.4036 152.244 31.1549C152.116 30.9066 152.052 30.5942 152.052 30.2172C152.052 29.806 152.131 29.4427 152.289 29.1258C152.448 28.8092 152.668 28.5415 152.95 28.323C153.233 28.1046 153.571 27.9398 153.965 27.8289C154.359 27.7175 154.795 27.6616 155.275 27.6616C155.866 27.6616 156.392 27.7499 156.855 27.9248C157.317 28.1008 157.736 28.3681 158.113 28.7279L157.779 29.2414Z" fill="#DFDFDF"/>
</svg>
