<svg width="113" height="40" viewBox="0 0 113 40" fill="none" xmlns="http://www.w3.org/2000/svg">
<path d="M107.853 4.42516V11.0412H112.278V0H101.237V4.42516H107.853Z" fill="#DFDFDF"/>
<path d="M105.64 6.61605H101.237V11.0304H105.64V6.61605Z" fill="#DFDFDF"/>
<path d="M6.61605 4.42517H0V11.0456H6.61605V4.42517Z" fill="#DFDFDF"/>
<path d="M53.8613 24.6638C53.8613 23.6226 53.8179 20.9328 52.2995 19.1106C50.0652 16.5076 46.1173 16.2039 44.2518 16.2039C42.3863 16.2039 39.4578 16.551 37.3971 18.026C35.3364 19.5011 34.9025 22.1475 34.8375 23.3623H41.345C41.2967 22.657 41.4631 21.9537 41.8223 21.3449C42.1091 20.9478 42.4878 20.626 42.9259 20.4069C43.3641 20.1878 43.8487 20.078 44.3385 20.0868C44.9676 20.0868 46.703 20.3254 47.2886 21.974C47.549 22.7766 47.5923 23.4924 47.5923 24.9675C45.4014 24.9675 41.4318 24.9675 38.6552 26.2256C34.4904 28.1562 33.8613 31.4534 33.8613 33.2538C33.8398 35.1049 34.5491 36.8898 35.8353 38.2213C36.7247 39.0672 38.1997 40 41.4752 40C42.7116 40 45.7268 40 48.2214 36.3774C48.2079 37.4084 48.2805 38.4388 48.4383 39.4577H54.447C54.0596 37.574 53.8778 35.6539 53.9047 33.731L53.8613 24.6638ZM46.3559 34.4035C46.0043 34.8071 45.5712 35.1317 45.0852 35.356C44.5992 35.5803 44.0712 35.6993 43.5359 35.705C41.345 35.705 40.3038 34.013 40.3038 32.4946C40.3038 29.8048 43.3407 28.4599 47.5923 28.8069C47.5923 31.2364 47.5056 32.9718 46.3559 34.4035Z" fill="#DFDFDF"/>
<path d="M92.3427 11.128L85.77 12.9284V16.833H81.4316V21.2148H85.77V33.7744C85.77 35.6616 85.77 39.8699 92.4295 39.8699C94.1667 39.8524 95.8945 39.6118 97.5705 39.154V34.8156C96.8293 34.9067 96.083 34.9501 95.3362 34.9458C92.3861 34.9458 92.3861 33.6443 92.3427 31.5835V21.2148H97.7006V16.833H92.3427V11.128Z" fill="#DFDFDF"/>
<path d="M6.61605 16.833H0V39.4685H6.61605V16.833Z" fill="#DFDFDF"/>
<path d="M27.0933 16.833L21.9089 32.1692L16.8113 16.833H9.69629L17.9826 39.4577H25.3362L33.4924 16.833H27.0933Z" fill="#DFDFDF"/>
<path d="M78.4599 20.4989C77.8742 18.9371 75.987 16.2473 71.5619 16.2473C66.6378 16.2473 64.859 19.154 64.23 20.1735L64.0564 16.833H57.7007C57.8308 18.3948 57.8308 20.8026 57.8308 20.8894V39.4577H64.4903V26.2256C64.4903 24.4686 64.9024 23.3623 65.2929 22.7766C65.6838 22.2292 66.2021 21.7852 66.803 21.4828C67.4039 21.1805 68.0693 21.0289 68.7419 21.0412C69.4065 21.0187 70.0637 21.1864 70.6362 21.5245C71.2088 21.8627 71.6729 22.3573 71.974 22.9501C72.3211 23.666 72.3211 24.4686 72.3211 25.423V39.4577H79.0673V27.2451C79.0673 23.0369 78.9371 21.8872 78.4599 20.4989Z" fill="#DFDFDF"/>
<path d="M107.853 16.833H101.237V39.4685H107.853V16.833Z" fill="#DFDFDF"/>
</svg>
