<svg width="108" height="40" viewBox="0 0 108 40" fill="none" xmlns="http://www.w3.org/2000/svg">
<path d="M19.1595 10.4233C20.7507 10.3494 22.3244 10.6625 23.7851 11.358C24.3112 11.6058 24.8068 11.9015 25.2719 12.2319C26.9239 13.4056 27.8021 14.8055 28.1108 15.3707C28.1977 15.5272 28.3499 15.6358 28.5281 15.6532L34.2623 16.1619C34.4666 16.1793 34.6579 16.0706 34.7492 15.8836L37.2446 10.6972C37.2707 10.6451 37.2663 10.5842 37.2446 10.5364C36.2273 8.66701 34.9318 6.97589 33.3928 5.51517C31.8538 4.05446 30.1019 2.85023 28.1934 1.94163C26.2805 1.03303 24.2503 0.433098 22.1505 0.163561C20.5985 -0.0364177 19.0378 -0.053807 17.4858 0.11574C17.0684 0.159214 16.925 0.676551 17.2423 0.946087L20.9637 4.09358C21.1158 4.224 21.1767 4.43268 21.1115 4.62396L19.1595 10.4233Z" fill="#DFDFDF"/>
<path d="M16.0338 1.83294L14.9382 0.915645C14.8078 0.806961 14.6296 0.772182 14.4687 0.828697C13.5993 1.13736 10.7256 2.21116 8.93453 3.4632C7.19559 4.67612 5.64358 6.11075 4.34806 7.78883C3.05254 9.46257 2.03526 11.3232 1.32229 13.3143C0.870166 14.5751 0.548461 15.8749 0.357177 17.1922C0.296314 17.6095 0.765829 17.8791 1.10492 17.6313L5.21753 14.6533C5.39578 14.5273 5.63488 14.5316 5.80443 14.662L9.9866 17.9052C10.2779 18.1312 10.7126 17.966 10.8039 17.6052C11.1343 16.3358 11.7168 15.1489 12.5342 14.0882C13.5384 12.7883 14.8339 11.7928 16.3077 11.1233C16.625 10.9798 17.1032 10.8146 17.3902 10.7233C17.538 10.6755 17.6597 10.5581 17.7075 10.4103L19.4986 5.14998C19.5638 4.9587 19.503 4.74568 19.3508 4.61525L16.0251 1.83294H16.0338Z" fill="#DFDFDF"/>
<path d="M15.1643 29.1388C15.4165 28.904 15.3599 28.4867 15.06 28.3128C13.9601 27.665 12.995 26.8042 12.2081 25.7609C11.2256 24.4523 10.6865 22.9351 10.3518 21.3526C10.2648 20.9483 10.2431 20.4832 10.2387 20.2093C10.2387 20.0528 10.1648 19.905 10.0431 19.8093L5.70009 16.4184C5.52619 16.2836 5.28709 16.2793 5.10885 16.4097L0.200669 19.9876C0.0659002 20.0875 -0.00800511 20.2441 0.000689629 20.4136C0.0702475 21.2961 0.339784 24.1915 1.07884 26.426C1.73964 28.4301 2.75692 30.2865 4.02201 31.9732C5.28709 33.66 6.80432 35.1251 8.52588 36.3337C9.68662 37.1466 10.9256 37.8335 12.2255 38.3813C12.6081 38.5421 12.9863 38.1682 12.8428 37.777L11.1691 33.2166C11.0995 33.0297 11.1517 32.821 11.2995 32.6862L15.1643 29.1344V29.1388Z" fill="#DFDFDF"/>
<path d="M27.7586 24.5392C27.7586 24.5436 25.7371 27.7433 23.2026 28.791C21.781 29.3822 20.3377 29.6517 18.7813 29.6822C18.1857 29.6952 17.6467 29.6039 17.3423 29.5431C17.1771 29.5083 16.9989 29.5518 16.8772 29.6648L12.995 33.1992C12.8472 33.334 12.795 33.547 12.8646 33.7339L14.9382 39.3246C14.9991 39.4898 15.1426 39.6072 15.3165 39.6377C15.9077 39.7333 17.3032 39.942 18.1075 39.9767C19.2421 40.0289 20.3377 39.9941 21.4463 39.8637C23.5547 39.6159 25.6023 39.0464 27.5326 38.1639C29.4628 37.2814 31.1757 36.0467 32.7929 34.6773C34.4449 33.2775 35.9578 30.9647 36.5403 30.0169C36.6838 29.7865 36.6012 29.4822 36.3621 29.3474L27.7586 24.5436V24.5392Z" fill="#DFDFDF"/>
<path d="M98.6077 20.8396H96.4688C96.3055 20.8396 96.1732 20.972 96.1732 21.1353V34.5773C96.1732 34.7406 96.3055 34.8729 96.4688 34.8729H98.6077C98.7709 34.8729 98.9033 34.7406 98.9033 34.5773V21.1353C98.9033 20.972 98.7709 20.8396 98.6077 20.8396Z" fill="#DFDFDF"/>
<path d="M87.4045 29.1822H91.9388C91.7823 27.9085 90.9172 27.2564 89.7608 27.2564C88.6044 27.2564 87.6393 27.9041 87.4045 29.1822ZM90.0738 35.112C86.9133 35.112 84.7917 32.934 84.7917 30.03C84.7917 27.1259 86.7741 25.0262 89.7391 25.0262C92.704 25.0262 94.3516 27.1868 94.3516 29.6213C94.3516 30.5647 94.1342 31.0951 93.2909 31.0951H87.4393C87.7349 32.3123 88.7348 32.9775 90.2868 32.9775C91.0346 32.9775 91.7388 32.8384 92.5257 32.3906C92.6648 32.3123 92.7605 32.3297 92.8605 32.4688L93.5865 33.4687C93.6865 33.6079 93.6647 33.7426 93.4865 33.8991C92.6605 34.7251 91.4258 35.1164 90.0695 35.1164L90.0738 35.112Z" fill="#DFDFDF"/>
<path d="M76.5144 29.1822H81.0487C80.8922 27.9085 80.027 27.2564 78.8706 27.2564C77.7142 27.2564 76.7491 27.9041 76.5144 29.1822ZM79.1837 35.112C76.0231 35.112 73.9016 32.934 73.9016 30.03C73.9016 27.1259 75.884 25.0262 78.8489 25.0262C81.8138 25.0262 83.4615 27.1868 83.4615 29.6213C83.4615 30.5647 83.2441 31.0951 82.4007 31.0951H76.5491C76.8448 32.3123 77.8447 32.9775 79.3967 32.9775C80.1444 32.9775 80.8487 32.8384 81.6356 32.3906C81.7747 32.3123 81.8703 32.3297 81.9703 32.4688L82.6963 33.4687C82.7963 33.6079 82.7746 33.7426 82.5963 33.8991C81.7703 34.7251 80.5357 35.1164 79.1793 35.1164L79.1837 35.112Z" fill="#DFDFDF"/>
<path d="M63.2853 34.8729C63.1071 34.8729 62.9897 34.7556 62.9897 34.5773V21.1309C62.9897 20.9527 63.1071 20.8353 63.2853 20.8353H65.4068C65.5851 20.8353 65.7025 20.9527 65.7025 21.1309V26.7042C66.2502 25.7217 67.1762 25.0175 68.6065 25.0175C70.6106 25.0175 72.08 26.4695 72.08 28.9823V34.5773C72.08 34.7556 71.9409 34.8729 71.767 34.8729H69.6673C69.489 34.8729 69.3716 34.7556 69.3716 34.5773V29.5909C69.3716 28.2345 68.7456 27.5085 67.5849 27.5085C66.4241 27.5085 65.7025 28.2345 65.7025 29.5909V34.5773C65.7025 34.7556 65.5851 34.8729 65.4068 34.8729H63.2853Z" fill="#DFDFDF"/>
<path d="M48.5043 34.873C48.3478 34.873 48.2087 34.7947 48.1521 34.6382L45.1307 25.587C45.0525 25.3696 45.1525 25.2522 45.3655 25.2522H47.4261C47.5826 25.2522 47.7217 25.3305 47.7783 25.487L49.7041 31.7298L51.8039 25.487C51.8648 25.3305 51.9996 25.2522 52.1561 25.2522H54.2167C54.3732 25.2522 54.5123 25.3305 54.5689 25.487L56.6512 31.7298L58.5771 25.487C58.638 25.3305 58.7945 25.2522 58.951 25.2522H60.9943C61.2116 25.2522 61.3073 25.3696 61.229 25.587L58.225 34.6382C58.1641 34.7947 58.0294 34.873 57.8729 34.873H55.6948C55.5383 34.873 55.3992 34.7947 55.3427 34.6382L53.182 28.3954L51.0431 34.6382C50.9823 34.7947 50.8475 34.873 50.691 34.873H48.513H48.5043Z" fill="#DFDFDF"/>
<path d="M100.19 13.4795H104.724C104.568 12.2058 103.703 11.5537 102.546 11.5537C101.39 11.5537 100.425 12.2014 100.19 13.4795ZM102.859 19.405C99.6989 19.405 97.5774 17.227 97.5774 14.3229C97.5774 11.4189 99.5598 9.31911 102.525 9.31911C105.49 9.31911 107.137 11.4798 107.137 13.9143C107.137 14.8577 106.92 15.388 106.076 15.388H100.225C100.521 16.6053 101.52 17.2705 103.072 17.2705C103.82 17.2705 104.524 17.1313 105.311 16.6836C105.45 16.6053 105.546 16.6227 105.646 16.7618L106.372 17.7617C106.472 17.9008 106.45 18.0356 106.272 18.1921C105.446 19.0181 104.211 19.4094 102.855 19.4094L102.859 19.405Z" fill="#DFDFDF"/>
<path d="M91.0433 19.1703C90.865 19.1703 90.7477 19.0529 90.7477 18.8746V9.84516C90.7477 9.66692 90.865 9.54954 91.0433 9.54954H93.0865C93.2648 9.54954 93.3604 9.62779 93.3822 9.86255L93.4604 11.0972C93.7952 10.0756 94.4038 9.31043 95.5428 9.31043C95.9949 9.31043 96.2688 9.42781 96.4253 9.54519C96.5644 9.64518 96.6036 9.76256 96.6036 9.93645V11.6624C96.6036 11.8971 96.4644 11.958 96.2123 11.8971C95.9949 11.8363 95.7819 11.7971 95.5037 11.7971C94.169 11.7971 93.4604 12.6796 93.4604 14.0534V18.8616C93.4604 19.0398 93.343 19.1572 93.1648 19.1572H91.0433V19.1703Z" fill="#DFDFDF"/>
<path d="M82.8137 19.405C80.7922 19.405 79.3401 17.953 79.3401 15.4402V9.84513C79.3401 9.66689 79.4575 9.54951 79.6358 9.54951H81.7573C81.9355 9.54951 82.0529 9.66689 82.0529 9.84513V14.8316C82.0529 16.1879 82.6789 16.9139 83.8397 16.9139C85.0004 16.9139 85.7221 16.1879 85.7221 14.8316V9.84513C85.7221 9.66689 85.8395 9.54951 86.0177 9.54951H88.1175C88.2957 9.54951 88.4305 9.66689 88.4305 9.84513V18.8746C88.4305 19.0529 88.2914 19.1702 88.1175 19.1702H86.096C85.9177 19.1702 85.8221 19.092 85.8003 18.8572L85.7221 17.7182C85.1743 18.7007 84.2483 19.405 82.818 19.405H82.8137Z" fill="#DFDFDF"/>
<path d="M75.9796 19.2876C74.4494 19.2876 73.0756 18.579 73.0756 16.4792V11.6493H71.8583C71.6801 11.6493 71.5627 11.5319 71.5627 11.3537V9.8408C71.5627 9.66256 71.6801 9.54518 71.8583 9.54518H73.0756V7.2889C73.0756 7.11066 73.193 6.99328 73.3712 6.99328H75.5101C75.6884 6.99328 75.8057 7.11066 75.8057 7.2889V9.54518H77.3186C77.4969 9.54518 77.6142 9.66256 77.6142 9.8408V11.3537C77.6142 11.5319 77.4969 11.6493 77.3186 11.6493H75.8057V16.1836C75.8057 16.7531 76.1405 17.027 76.6491 17.027C76.8274 17.027 77.023 17.027 77.2578 17.0053C77.4751 16.9835 77.6099 17.0835 77.6099 17.2792V18.7138C77.6099 19.1659 76.6274 19.2833 75.9796 19.2833V19.2876Z" fill="#DFDFDF"/>
<path d="M69.7194 5.13695H67.5805C67.4172 5.13695 67.2849 5.2693 67.2849 5.43257V18.8746C67.2849 19.0379 67.4172 19.1702 67.5805 19.1702H69.7194C69.8827 19.1702 70.015 19.0379 70.015 18.8746V5.43257C70.015 5.2693 69.8827 5.13695 69.7194 5.13695Z" fill="#DFDFDF"/>
<path d="M59.351 19.405C57.3294 19.405 55.8774 17.953 55.8774 15.4402V9.84513C55.8774 9.66689 55.9948 9.54951 56.173 9.54951H58.2945C58.4728 9.54951 58.5902 9.66689 58.5902 9.84513V14.8316C58.5902 16.1879 59.2162 16.9139 60.3769 16.9139C61.5377 16.9139 62.2593 16.1879 62.2593 14.8316V9.84513C62.2593 9.66689 62.3767 9.54951 62.555 9.54951H64.6547C64.833 9.54951 64.9678 9.66689 64.9678 9.84513V18.8746C64.9678 19.0529 64.8286 19.1702 64.6547 19.1702H62.6332C62.455 19.1702 62.3593 19.092 62.3376 18.8572L62.2593 17.7182C61.7116 18.7007 60.7856 19.405 59.3553 19.405H59.351Z" fill="#DFDFDF"/>
<path d="M50.291 19.405C47.3653 19.405 45.209 17.2052 45.209 14.3229C45.209 11.4406 47.3479 9.31911 50.2345 9.31911C51.8257 9.31911 53.1386 9.98861 53.9646 11.045C54.0819 11.1841 54.0428 11.3406 53.9254 11.458L52.7473 12.6144C52.5908 12.7709 52.3734 12.7535 52.2387 12.6144C51.7083 12.084 51.1388 11.8102 50.3563 11.8102C48.826 11.8102 47.8261 12.91 47.8261 14.3229C47.8261 15.7358 48.826 16.914 50.4171 16.914C51.1649 16.914 51.7344 16.6401 52.2604 16.1097C52.3995 15.9706 52.6125 15.9532 52.769 16.1097L53.9472 17.2661C54.0646 17.3835 54.1037 17.54 53.9863 17.6791C53.1603 18.7399 51.8474 19.405 50.2954 19.405H50.291Z" fill="#DFDFDF"/>
</svg>
