<svg width="159" height="40" viewBox="0 0 159 40" fill="none" xmlns="http://www.w3.org/2000/svg">
<path fill-rule="evenodd" clip-rule="evenodd" d="M18.1085 36.4587C28.1096 36.4587 36.217 28.2971 36.217 18.2293C36.217 8.16156 28.1096 0 18.1085 0C8.10742 0 0 8.16156 0 18.2293C0 28.2971 8.10742 36.4587 18.1085 36.4587ZM25.7849 7.52952C21.6515 8.12397 17.2228 10.9971 14.664 14.8609C11.8099 15.3562 9.15267 16.9414 7.4796 19.3192C7.38118 19.4182 7.38118 19.6164 7.4796 19.8145C7.57803 20.0127 7.67645 20.1118 7.8733 20.1118H11.4162L11.0226 20.6071C10.9242 20.8053 10.9242 21.1025 11.121 21.2015L17.7149 26.0561C17.8133 26.1552 17.9117 26.1552 18.0101 26.1552C18.1085 26.1552 18.2069 26.0561 18.3053 25.957L18.699 25.4617L19.6832 28.8301C19.7816 29.0283 19.88 29.1274 20.0768 29.1274H20.1752C20.2737 29.1274 20.4705 29.0283 20.4705 28.9292C22.242 26.5514 22.9309 23.5793 22.5372 20.7061C25.4897 17.1396 26.9659 11.9878 26.1786 7.82674C26.277 7.72767 25.9818 7.52952 25.7849 7.52952ZM22.8325 15.9507C22.4388 16.4461 21.9467 16.7432 21.3563 16.8423C20.7657 16.9414 20.1752 16.8423 19.6832 16.4461C18.699 15.7525 18.5022 14.2665 19.1911 13.2758C19.88 12.285 21.3563 12.0869 22.3404 12.7804C23.3245 13.4739 23.6198 14.8609 22.8325 15.9507Z" fill="#DFDFDF"/>
<path d="M13.0893 26.5514L6.00337 35.9634C5.70813 36.3596 5.11764 36.4587 4.72397 36.1615C4.33031 35.8643 4.23189 35.2698 4.52714 34.8735L11.6131 25.4617C11.9084 25.0653 12.4988 24.9663 12.8925 25.2635C13.2861 25.5607 13.3846 26.1552 13.0893 26.5514Z" fill="#DFDFDF"/>
<path d="M13.2863 32.0004L7.47978 39.6291C7.18451 40.0253 6.59401 40.1244 6.20035 39.8272C5.80668 39.5299 5.70827 38.9356 6.00352 38.5392L11.8101 30.9107C12.1053 30.5144 12.6958 30.4153 13.0895 30.7125C13.5816 31.0097 13.5816 31.6042 13.2863 32.0004Z" fill="#DFDFDF"/>
<path d="M7.87337 27.8394L2.06685 35.468C1.77161 35.8643 1.18111 35.9634 0.787444 35.6661C0.393784 35.3689 0.295367 34.7745 0.590618 34.3782L6.39716 26.7496C6.6924 26.3533 7.2829 26.2543 7.67652 26.5515C8.07022 26.8487 8.16865 27.4431 7.87337 27.8394Z" fill="#DFDFDF"/>
<path d="M54.8178 14.6627L53.8336 18.7247C52.9479 18.2293 52.1606 18.1303 51.6685 18.1303C49.5033 18.1303 48.027 20.1118 48.027 24.4709V29.7217H43.7952V14.5636H48.027V17.8331C48.9128 15.2572 50.5859 14.2665 52.4558 14.2665C53.2431 14.1674 54.1288 14.2665 54.8178 14.6627Z" fill="#DFDFDF"/>
<path fill-rule="evenodd" clip-rule="evenodd" d="M62.5927 14.1674C58.3608 14.1674 54.5225 17.2386 54.5225 22.0932C54.5225 26.9478 58.3608 30.019 62.5927 30.019C66.8245 30.019 70.6627 26.8487 70.6627 22.0932C70.6627 17.3377 66.8245 14.1674 62.5927 14.1674ZM62.5927 18.1303C64.7578 18.1303 66.4308 19.7154 66.4308 22.0932C66.4308 24.4709 64.7578 26.0561 62.5927 26.0561C60.4275 26.0561 58.7544 24.4709 58.7544 22.0932C58.7544 19.7154 60.4275 18.1303 62.5927 18.1303Z" fill="#DFDFDF"/>
<path d="M71.8437 22.0932C71.8437 17.2386 75.6819 14.1674 80.111 14.1674C82.8663 14.1674 85.0315 15.4553 86.5078 17.4368L83.3584 19.7154C82.6696 18.7247 81.3899 18.2293 80.2089 18.2293C77.8471 18.2293 76.174 19.9136 76.174 22.1922C76.174 24.4709 77.7486 26.1552 80.2089 26.1552C81.3899 26.1552 82.6696 25.5607 83.3584 24.6691L86.5078 26.9478C85.1302 28.9292 82.8663 30.2171 80.111 30.2171C75.6819 30.019 71.8437 26.9478 71.8437 22.0932Z" fill="#DFDFDF"/>
<path d="M97.8259 29.7218L92.5113 23.183V29.7218H88.2797V6.43974H92.5113V19.121L96.3496 14.4646H101.762L95.8574 21.1025L103.042 29.6227H97.8259V29.7218Z" fill="#DFDFDF"/>
<path fill-rule="evenodd" clip-rule="evenodd" d="M106.191 23.4802H117.607V21.9941C117.607 17.3377 114.162 14.2665 109.832 14.2665C105.502 14.2665 101.861 17.2387 101.861 22.1923C101.861 26.8487 105.207 30.0191 109.832 30.0191C112.489 30.0191 115.147 28.9292 116.524 27.0469L114.064 24.5701C113.178 25.6598 111.604 26.2543 110.127 26.2543C108.061 26.2543 106.683 25.2635 106.191 23.4802ZM109.832 17.8331C111.8 17.8331 113.277 18.9229 113.376 20.7062H106.191C106.585 18.6257 108.159 17.8331 109.832 17.8331Z" fill="#DFDFDF"/>
<path d="M128.335 17.8331H125.087V29.7218H120.855V17.8331H118.099V14.5637H120.855V9.01562H125.087V14.5637H128.335V17.8331Z" fill="#DFDFDF"/>
<path d="M131.681 28.632C132.862 28.632 133.452 27.9385 133.55 27.245C133.649 26.2543 132.764 25.7589 131.976 25.5608L130.795 25.2636C128.827 24.7682 128.531 23.5793 128.531 22.7867C128.531 21.2016 130.008 20.1118 131.582 20.1118C133.255 20.1118 134.633 21.2016 134.633 22.8858C134.437 22.8858 133.55 22.8858 133.354 22.8858C133.354 21.8951 132.566 21.3006 131.582 21.3006C130.696 21.3006 129.811 21.8951 129.811 22.6877C129.811 23.084 130.008 23.6784 131.091 23.9756L132.271 24.2728C134.042 24.7682 134.928 25.7589 134.731 27.245C134.535 28.632 133.452 29.7218 131.582 29.7218C129.712 29.7218 128.334 28.3348 128.334 26.8487H129.614C129.614 27.8394 130.5 28.632 131.681 28.632Z" fill="#DFDFDF"/>
<path fill-rule="evenodd" clip-rule="evenodd" d="M138.964 29.8209C139.849 29.8209 140.834 29.4245 141.227 28.731V29.6227H142.408V23.2821H141.227V24.2728C140.735 23.5792 139.849 23.183 138.964 23.183C137.192 23.183 135.716 24.3718 135.716 26.4524C135.716 28.5329 137.192 29.8209 138.964 29.8209ZM136.995 26.5514C136.995 25.2635 137.881 24.4709 139.062 24.4709C140.145 24.4709 141.227 25.1644 141.128 26.5514C141.128 27.8394 140.145 28.632 139.062 28.632C137.881 28.632 136.995 27.8394 136.995 26.5514Z" fill="#DFDFDF"/>
<path fill-rule="evenodd" clip-rule="evenodd" d="M146.935 29.8209C147.821 29.8209 148.805 29.4245 149.199 28.731V29.6227H150.38V23.2821H149.199V24.2728C148.707 23.5792 147.821 23.183 146.935 23.183C145.164 23.183 143.688 24.3718 143.688 26.4524C143.688 28.5329 145.164 29.8209 146.935 29.8209ZM145.065 26.5514C145.065 25.2635 145.951 24.4709 147.132 24.4709C148.116 24.4709 149.199 25.1644 149.199 26.5514C149.199 27.8394 148.215 28.632 147.132 28.632C145.951 28.632 145.065 27.8394 145.065 26.5514Z" fill="#DFDFDF"/>
<path d="M155.104 28.632C156.285 28.632 156.875 27.9385 156.973 27.245C157.072 26.2543 156.186 25.7589 155.399 25.5608L154.218 25.2636C152.25 24.7682 151.954 23.5793 151.954 22.7867C151.954 21.2016 153.431 20.1118 155.005 20.1118C156.678 20.1118 158.056 21.2016 158.056 22.8858C157.859 22.8858 156.973 22.8858 156.777 22.8858C156.777 21.8951 155.989 21.3006 155.005 21.3006C154.119 21.3006 153.234 21.8951 153.234 22.6877C153.234 23.084 153.431 23.6784 154.513 23.9756L155.694 24.2728C157.465 24.7682 158.351 25.7589 158.154 27.245C157.958 28.632 156.875 29.7218 155.005 29.7218C153.135 29.7218 151.757 28.3348 151.757 26.8487H153.037C153.135 27.8394 153.923 28.632 155.104 28.632Z" fill="#DFDFDF"/>
</svg>
