<svg width="152" height="40" viewBox="0 0 152 40" fill="none" xmlns="http://www.w3.org/2000/svg">
<path d="M34.8235 11.1176V28.9695C34.8243 29.3145 34.7348 29.6536 34.5643 29.9528C34.3936 30.2519 34.148 30.5003 33.852 30.6732L18.3988 39.7369C18.0992 39.9093 17.76 40 17.4149 40C17.0698 40 16.7306 39.9093 16.4307 39.7369L0.980946 30.6856C0.683369 30.5139 0.435991 30.2658 0.263762 29.9667C0.0915343 29.6675 0.000553764 29.3279 0 28.9819V11.0331C0.000639032 10.6867 0.0916273 10.3467 0.263819 10.0471C0.436011 9.74748 0.68334 9.49888 0.980946 9.32624L16.4307 0.26567C16.7291 0.0916383 17.0673 0 17.4119 0C17.7562 0 18.0946 0.0916383 18.3926 0.26567L26.0292 4.71294C26.2579 4.83867 26.4596 5.0093 26.6219 5.2148C26.7844 5.42035 26.9045 5.65657 26.975 5.90964C27.0456 6.1627 27.0653 6.42744 27.0327 6.68825C27.0004 6.94906 26.9166 7.20073 26.7862 7.42835C26.6559 7.65598 26.4817 7.855 26.2741 8.01367C26.0664 8.17235 25.8292 8.28743 25.5766 8.35224C25.3242 8.41701 25.0613 8.43016 24.8037 8.39092C24.5462 8.35163 24.2989 8.26076 24.0766 8.12359L17.418 4.25257L3.91136 12.1669V27.8481L17.4119 35.7594L30.9184 27.8481V14.428L33.8582 12.6961C34.1338 12.5317 34.3658 12.3021 34.534 12.0272C34.7022 11.7522 34.8016 11.44 34.8235 11.1176Z" fill="#DFDFDF"/>
<path d="M34.8229 10.9734V11.0593C34.7988 11.3841 34.6977 11.6982 34.5282 11.975C34.3586 12.2515 34.1259 12.4825 33.8494 12.648L30.8853 14.4053L18.3651 21.8412C18.0639 22.0226 17.7199 22.1182 17.3698 22.1176C17.0258 22.1168 16.688 22.0247 16.39 21.8507L8.58679 17.2748C8.3508 17.1494 8.14227 16.9767 7.97385 16.7672C7.80539 16.5577 7.68047 16.3158 7.60665 16.056C7.53282 15.7962 7.51164 15.5238 7.54433 15.2554C7.57703 14.9871 7.66294 14.7282 7.79691 14.4945C7.93083 14.2607 8.11007 14.0569 8.32372 13.8954C8.53738 13.7339 8.78102 13.6181 9.03998 13.5548C9.29903 13.4915 9.56787 13.4822 9.8306 13.5273C10.0932 13.5725 10.3441 13.6711 10.5681 13.8174L17.376 17.815L31.8524 9.21304C32.3047 8.94604 32.8426 8.87205 33.3484 9.00721C33.8543 9.14249 34.2865 9.47589 34.5505 9.93437C34.7377 10.247 34.8322 10.6077 34.8229 10.9734Z" fill="#DFDFDF"/>
<path d="M67.57 10.6519C67.9547 10.6519 68.0583 10.7581 67.9874 11.1961L64.909 25.9648C64.1749 29.4203 63.6509 29.9073 60.8158 29.9073C57.7374 29.9073 57.5629 29.453 56.7575 25.9648L54.4845 16.1997L52.2083 25.9648C51.4032 29.453 51.2287 29.9073 48.1503 29.9073C45.3505 29.9073 44.7909 29.4203 44.0571 25.9648L40.9894 11.2097C40.9185 10.7581 41.025 10.6655 41.4097 10.6655H43.9612C44.2071 10.6655 44.2779 10.7717 44.3816 11.2097L47.2527 25.5485C47.5255 26.7674 47.741 26.8736 48.1966 26.8736C48.7919 26.8736 48.8599 26.7674 49.1409 25.5485L52.536 11.7675C52.6397 11.3485 52.7786 11.2233 53.0244 11.2233H55.9635C56.2363 11.2233 56.3486 11.362 56.4547 11.7675L59.8469 25.5485C60.1198 26.7674 60.196 26.8736 60.7913 26.8736C61.2468 26.8736 61.457 26.7674 61.7381 25.5485L64.6063 11.2097C64.7099 10.7581 64.7808 10.6655 65.0594 10.6655L67.57 10.6519Z" fill="#DFDFDF"/>
<path d="M85.2153 19.9828V20.9931C85.2153 21.7008 85.0428 21.9816 83.9743 21.9816H73.0029C73.1053 26.2904 73.8988 27.3477 77.5914 27.3477H83.2426C83.3131 27.3376 83.3844 27.3443 83.4511 27.3673C83.5187 27.3904 83.5798 27.4289 83.6298 27.4802C83.6798 27.5315 83.7179 27.5938 83.74 27.6626C83.7625 27.7314 83.7695 27.8046 83.7588 27.8763V29.432C83.765 29.5018 83.756 29.5719 83.7347 29.6385C83.7133 29.705 83.6789 29.7664 83.6343 29.819C83.5884 29.8716 83.5335 29.9144 83.4716 29.9449C83.4102 29.9754 83.343 29.9928 83.275 29.9963C81.3638 30.2336 79.4387 30.3395 77.5135 30.313C71.0277 30.313 69.6471 28.3856 69.6471 20.5003C69.6471 12.6149 71.0277 10.6519 77.5135 10.6519C83.6974 10.6629 85.1587 12.5324 85.2153 19.9828ZM72.968 19.2392H81.905C81.8353 14.757 81.0975 13.6281 77.5213 13.6281C73.7968 13.6281 73.0487 14.757 72.968 19.2392Z" fill="#DFDFDF"/>
<path d="M90.8477 3.69176C90.9174 3.68167 90.9882 3.68836 91.0542 3.7113C91.121 3.73424 91.1812 3.77279 91.2312 3.82391C91.2808 3.87502 91.3176 3.93729 91.3402 4.00576C91.3619 4.07424 91.3676 4.14703 91.3574 4.21836V11.0752C92.8609 10.8968 94.3735 10.8148 95.8869 10.8297C102.323 10.8297 103.651 12.8597 103.651 20.6252C103.651 28.3908 102.323 30.3144 95.7164 30.3144C93.3427 30.3423 90.971 30.1432 88.6325 29.7196C88.2925 29.684 88.0876 29.5449 88.0876 29.1601V4.21836C88.0774 4.14687 88.0844 4.07406 88.1065 4.00562C88.129 3.93717 88.1667 3.87498 88.2163 3.82394C88.2663 3.7729 88.3265 3.7344 88.3933 3.71146C88.46 3.68853 88.5309 3.68178 88.6006 3.69176H90.8477ZM91.3574 13.7683V27.0947C92.8159 27.2728 94.2825 27.3638 95.7513 27.3675C99.9407 27.3675 100.416 25.935 100.416 20.5815C100.416 15.089 99.9059 13.7601 95.7164 13.7601L91.3574 13.7683Z" fill="#DFDFDF"/>
<path d="M121.654 10.6519C122.064 10.6519 122.133 10.7581 122.064 11.1965L118.223 25.8231C117.297 29.4198 117.196 29.9073 113.676 29.9073C110.488 29.9073 110.317 29.4198 109.321 25.8231L105.31 11.1965C105.241 10.7445 105.344 10.6519 105.722 10.6519H108.26C108.528 10.6519 108.568 10.7581 108.704 11.1965L112.408 25.0553C112.855 26.6263 112.957 26.9068 113.676 26.9068C114.601 26.9068 114.746 26.6345 115.152 25.0553L118.718 11.1965C118.819 10.7445 118.888 10.6519 119.164 10.6519H121.654Z" fill="#DFDFDF"/>
<path d="M139.286 16.1956V28.5517C139.316 28.7705 139.266 28.993 139.142 29.1757C139.02 29.3585 138.834 29.4884 138.622 29.5403C137.399 30.0002 134.364 30.317 130.873 30.317C126.264 30.317 124.136 29.364 124.136 24.6332C124.136 20.3978 126.335 19.1971 130.315 19.1971L135.935 19.1614V16.7958C135.935 14.6067 134.677 13.6181 131.396 13.6181H126.16C125.741 13.6181 125.638 13.5106 125.638 13.0893V11.6409C125.638 11.2168 125.777 11.1452 126.126 11.0901C127.871 10.7897 129.639 10.6433 131.41 10.6523C136.855 10.6523 139.286 12.3458 139.286 16.1956ZM130.383 21.9151C128.464 21.9151 127.452 22.5485 127.452 24.5614C127.452 26.8911 128.603 27.4227 131.467 27.4227C132.556 27.4227 134.608 27.3511 135.935 26.9986V21.9151H130.383Z" fill="#DFDFDF"/>
<path d="M151.494 11.0355C151.825 11.1388 151.992 11.2803 151.992 11.6285V13.0919C151.999 13.1646 151.992 13.2384 151.965 13.3067C151.942 13.375 151.9 13.4358 151.848 13.484C151.797 13.5323 151.734 13.5664 151.666 13.5833C151.598 13.6003 151.528 13.5997 151.461 13.5815H148.588C146.308 13.5815 145.714 13.965 145.714 15.5346V29.3801C145.724 29.4512 145.718 29.5238 145.697 29.5919C145.674 29.6601 145.638 29.7221 145.59 29.7726C145.542 29.8234 145.483 29.8615 145.419 29.8839C145.354 29.9065 145.284 29.9128 145.218 29.9024H143.071C143.004 29.9123 142.935 29.9057 142.871 29.8829C142.807 29.8602 142.748 29.8221 142.7 29.7714C142.652 29.7208 142.616 29.659 142.594 29.5911C142.573 29.5233 142.567 29.451 142.575 29.3801V14.7322C142.575 10.7906 145.879 10.6519 147.795 10.6519C148.588 10.6519 150.834 10.7934 151.494 11.0355Z" fill="#DFDFDF"/>
</svg>
