<svg width="283" height="40" viewBox="0 0 283 40" fill="none" xmlns="http://www.w3.org/2000/svg">
<path d="M25.6834 0C17.2527 0 10.4188 2.02162 10.4188 4.81231V8.42337C10.4188 8.48196 10.3602 8.53324 10.3016 8.51859C5.90679 7.34664 0.0177596 11.0456 0.0177596 17.2349C0.0177596 17.2349 -0.897813 27.2624 10.4188 30.0751L18.3881 18.5241C18.4247 18.4728 18.4979 18.4508 18.5492 18.4948L26.6942 24.0762C26.7382 24.1128 26.8114 24.0982 26.8481 24.0469L33.7699 13.9974C33.8065 13.9462 33.7918 13.8729 33.7479 13.8436L32.4294 12.9354C32.3781 12.9061 32.3854 12.8108 32.4513 12.7889L37.6373 10.7966C37.6959 10.7746 37.7617 10.8185 37.7617 10.8845V16.4292C37.7617 16.5098 37.6812 16.5464 37.6226 16.5098L36.3042 15.6015C36.2602 15.5722 36.187 15.5796 36.1504 15.6308L27.5878 28.0608C27.5585 28.1121 27.4852 28.1194 27.434 28.0901L19.2889 22.5087C19.2376 22.4721 19.1644 22.4867 19.1278 22.5307L10.4188 35.173V35.1877C10.4188 37.9784 17.2454 40 25.6834 40C34.1214 40 40.948 37.9784 40.948 35.1877V4.81963C40.948 2.02893 34.1214 0.00733184 25.6834 0.00733184V0ZM10.4188 25.6363C10.4188 25.7096 10.3602 25.7535 10.2942 25.7316C4.33931 24.0689 3.89985 19.9817 3.89985 17.2203C3.89985 14.4589 6.22175 11.2214 10.177 12.5398C10.3235 12.5838 10.4188 12.7229 10.4188 12.8694V25.629V25.6363ZM37.9376 6.51163C36.9048 7.1855 33.6819 8.72368 25.676 8.72368C17.6702 8.72368 14.4474 7.1855 13.4146 6.51163C13.1949 6.37246 13.1949 6.05017 13.4146 5.89636C14.4767 5.17854 17.8386 3.44992 25.676 3.44992C33.5134 3.44992 36.8828 5.17854 37.9376 5.89636C38.1573 6.04285 38.1573 6.36513 37.9376 6.51163Z" fill="#DFDFDF"/>
<path d="M61.4059 30.8442L56.0368 16.6783V30.8442H51.7959V9.15583H57.1648L62.9586 24.4497L68.7158 9.15583H74.0113V30.8442H69.7413V16.6783L64.4821 30.8442H61.4059Z" fill="#DFDFDF"/>
<path d="M87.0126 31.1958C80.9697 31.1958 76.7727 26.464 76.7727 19.9963C76.7727 13.5287 80.9771 8.79693 87.0126 8.79693C93.0481 8.79693 97.2891 13.492 97.2891 19.9963C97.2891 26.5006 93.0481 31.1958 87.0126 31.1958ZM87.0126 12.8255C83.5846 12.8255 81.3579 15.7554 81.3579 19.9963C81.3579 24.2373 83.5846 27.1672 87.0126 27.1672C90.4405 27.1672 92.7331 24.2373 92.7331 19.9963C92.7331 15.7554 90.4698 12.8255 87.0126 12.8255Z" fill="#DFDFDF"/>
<path d="M104.563 22.7504V30.8368H100.073V9.1485H109.009C113.565 9.1485 116.604 11.5876 116.604 16.0337C116.604 19.4983 114.7 21.6883 111.66 22.4281L117.381 30.8368H112.297L106.928 22.7504H104.563ZM104.563 19.0441H108.73C110.994 19.0441 112.158 17.8429 112.158 16.041C112.158 14.2391 110.994 13.0013 108.73 13.0013H104.563V19.0441Z" fill="#DFDFDF"/>
<path d="M137.758 30.8442H134.191L123.951 16.3999V30.8442H119.607V9.15583H123.848L133.422 22.8603V9.15583H137.765V30.8442H137.758Z" fill="#DFDFDF"/>
<path d="M146.093 30.8442H141.574V9.15583H146.093V30.8442Z" fill="#DFDFDF"/>
<path d="M168.06 30.8442H164.493L154.253 16.3999V30.8442H149.91V9.15583H154.151L163.724 22.8603V9.15583H168.067V30.8442H168.06Z" fill="#DFDFDF"/>
<path d="M182.153 23.0727V19.469H190.701V21.3734C190.701 27.3796 186.745 31.1958 181.274 31.1958C175.231 31.1958 170.821 26.6398 170.821 19.9963C170.821 13.3529 175.275 8.79693 181.171 8.79693C186.401 8.79693 189.543 11.8 190.356 16.1436H185.8C185.024 14.0927 183.684 12.8255 181.171 12.8255C177.604 12.8255 175.414 15.8286 175.414 19.9963C175.414 24.1641 177.641 27.2038 181.274 27.2038C184.064 27.2038 185.793 25.5411 186.291 23.0727H182.16H182.153Z" fill="#DFDFDF"/>
<path d="M216.864 24.6914C216.864 28.6834 214.11 30.8368 209.591 30.8368H200.582V9.1485H208.88C213.4 9.1485 216.19 11.1628 216.19 15.0449C216.19 17.3741 214.916 19.0734 213.326 19.6374C215.377 20.3113 216.857 22.3182 216.857 24.6914H216.864ZM208.602 18.0553C210.756 18.0553 211.883 17.2056 211.883 15.477C211.883 13.7484 210.756 12.972 208.602 12.972H204.932V18.0553H208.602ZM204.932 27.028H209.203C211.32 27.028 212.455 25.9659 212.455 24.3106C212.455 22.6552 211.327 21.5931 209.203 21.5931H204.932V27.0353V27.028Z" fill="#DFDFDF"/>
<path d="M224.248 22.7504V30.8368H219.765V9.1485H228.701C233.257 9.1485 236.297 11.5876 236.297 16.0337C236.297 19.4983 234.392 21.6883 231.353 22.4281L237.073 30.8368H231.99L226.621 22.7504H224.255H224.248ZM224.248 19.0441H228.415C230.679 19.0441 231.843 17.8429 231.843 16.041C231.843 14.2391 230.679 13.0013 228.415 13.0013H224.248V19.0441Z" fill="#DFDFDF"/>
<path d="M254.022 9.15583V13.1111H243.746V17.8429H253.07V21.6957H243.746V26.8522H254.022V30.8442H239.292V9.15583H254.022Z" fill="#DFDFDF"/>
<path d="M270.935 9.15583L274.678 23.7466L278.245 9.15583H282.698L277.044 30.8442H272.913L269.097 16.5391L265.28 30.8442H261.149L255.495 9.15583H260.051L263.581 23.7466L267.397 9.15583H270.928H270.935Z" fill="#DFDFDF"/>
</svg>
