<svg width="235" height="40" viewBox="0 0 235 40" fill="none" xmlns="http://www.w3.org/2000/svg">
<path d="M22.101 1.42539C24.9232 1.42539 27.7455 1.42539 30.6533 1.42539C30.6533 14.0472 30.6533 26.669 30.6533 39.6734C27.9878 39.6734 25.3223 39.6734 22.5761 39.6734C22.4977 38.6542 22.4193 37.635 22.3385 36.585C22.118 36.8349 21.8975 37.0848 21.6704 37.3422C19.6056 39.3864 16.8707 39.8782 14.0581 39.9267C10.7802 39.8626 7.76838 38.9769 5.23385 36.8226C4.96008 36.5924 4.96008 36.5924 4.68077 36.3577C1.55165 33.4893 0.188897 29.5199 0 25.3406C0.0377267 20.9124 1.20631 16.9516 4.2539 13.6303C7.18776 10.7969 10.9666 9.74415 14.974 9.74017C17.4519 9.84856 20.092 10.8195 21.8634 12.5909C21.9418 8.90631 22.0202 5.22168 22.101 1.42539ZM11.173 17.1047C10.9548 17.2214 10.9548 17.2214 10.7322 17.3404C8.97354 18.4041 7.92379 20.4047 7.37194 22.3311C6.91027 24.6152 7.21287 26.8317 8.41128 28.8493C8.93989 29.6137 9.53049 30.2604 10.2227 30.8834C10.3893 31.0451 10.5559 31.2068 10.7275 31.3734C12.2283 32.3848 14.1008 33.1146 15.9243 32.784C18.2595 32.1958 20.1453 31.0962 21.4774 29.0572C22.772 26.677 23.0882 24.3396 22.4211 21.7233C21.6951 19.5786 20.0615 17.6957 18.0624 16.6295C15.7612 15.7339 13.2914 15.8226 11.173 17.1047Z" fill="#DFDFDF"/>
<path d="M47.7729 8.93838C47.9919 8.93507 48.2109 8.93176 48.4366 8.92834C50.5441 8.9428 52.3825 9.38657 54.1574 10.5568C54.3703 10.6937 54.5831 10.8306 54.8024 10.9716C55.3601 11.4031 55.3601 11.4031 56.0728 12.3534C56.1512 11.5694 56.2296 10.7854 56.3104 9.97773C59.211 9.97773 62.1117 9.97773 65.1003 9.97773C65.1003 19.8557 65.1003 29.7336 65.1003 39.9109C62.1996 39.9109 59.2989 39.9109 56.3104 39.9109C56.232 38.8134 56.1536 37.7158 56.0728 36.585C55.7837 36.8741 55.4946 37.1632 55.1968 37.461C52.6402 39.7425 49.3878 40.0912 46.0951 39.9109C42.3119 39.4548 39.0768 37.7918 36.5925 34.922C33.5763 31.0227 32.8759 26.2106 33.3594 21.4096C34.05 17.2347 36.2008 13.8001 39.6075 11.2908C40.5438 10.6714 41.4959 10.1725 42.5316 9.74016C42.7123 9.66391 42.8929 9.58765 43.0791 9.50909C44.6187 8.98032 46.1611 8.95409 47.7729 8.93838ZM42.7692 18.7676C41.2481 20.6731 40.4694 22.833 40.6812 25.2877C41.0918 27.7589 42.2093 29.8103 44.1945 31.3586C45.8614 32.3662 47.4446 33.0182 49.421 32.784C51.9239 32.1464 53.713 31.0069 55.0631 28.7945C56.2482 26.7021 56.6193 24.5178 56.0579 22.1529C55.2885 19.7757 53.7065 17.9118 51.5915 16.5906C48.3884 15.1227 45.0306 16.3443 42.7692 18.7676Z" fill="#DFDFDF"/>
<path d="M228.683 10.4158C231.964 13.0845 234.234 16.6263 234.818 20.8525C234.991 22.6615 234.87 24.1687 234.714 26.0399C223.896 26.1575 223.896 26.1575 212.858 26.2775C213.589 28.4696 214.005 29.4118 215.912 30.537C217.859 31.5084 219.772 31.4264 221.798 30.7727C222.878 30.3526 223.607 29.8723 224.261 28.8907C224.986 28.8274 225.662 28.8081 226.386 28.8211C226.702 28.8226 226.702 28.8226 227.024 28.8242C227.697 28.8282 228.369 28.8371 229.042 28.8462C229.498 28.8497 229.954 28.853 230.409 28.8559C231.528 28.8638 232.646 28.8761 233.764 28.8907C232.534 32.6713 229.802 35.4766 226.399 37.443C222.264 39.4473 218.062 39.4956 213.734 38.1483C209.71 36.5974 206.889 33.6454 205.019 29.841C203.389 26.0202 203.168 21.5013 204.668 17.5934C205.65 15.3008 206.817 13.5567 208.582 11.786C208.746 11.617 208.909 11.4479 209.078 11.2738C214.21 6.313 223.076 6.1254 228.683 10.4158ZM213.683 17.6175C213.176 18.4149 213.176 18.4149 212.621 20.3384C217.011 20.3384 221.401 20.3384 225.924 20.3384C225.647 18.6732 225.119 17.4805 223.795 16.3907C220.383 14.1772 216.372 14.5789 213.683 17.6175Z" fill="#DFDFDF"/>
<path d="M196.466 11.3109C198.825 13.1928 200.57 16.2241 201.217 19.1505C201.217 19.4641 201.217 19.7777 201.217 20.1008C199.958 20.1538 198.699 20.1925 197.439 20.2183C197.011 20.229 196.582 20.2436 196.154 20.2621C192.585 20.4129 192.585 20.4129 191.612 19.6435C191.253 19.0951 191.017 18.5653 190.765 17.9627C189.563 16.6016 188.168 15.9805 186.383 15.7495C184.555 15.6607 182.889 16.2051 181.425 17.3094C179.588 19.1897 178.926 21.3008 178.886 23.9018C179.04 25.967 180.084 27.8577 181.618 29.2322C183.195 30.4615 184.733 30.9519 186.726 30.7912C188.411 30.3564 189.84 29.7362 191.002 28.4156C191.113 28.217 191.113 28.217 191.226 28.0145C191.916 26.841 191.916 26.841 192.645 26.6057C193.197 26.5602 193.727 26.5654 194.281 26.5902C194.479 26.5926 194.678 26.5949 194.883 26.5974C195.515 26.6066 196.146 26.6275 196.778 26.6487C197.207 26.657 197.637 26.6646 198.066 26.6714C199.117 26.6897 200.167 26.7184 201.217 26.7526C200.871 29.3022 199.94 31.1422 198.367 33.1669C198.23 33.3482 198.094 33.5295 197.954 33.7163C195.454 36.7998 191.564 38.5578 187.686 39.0392C183.109 39.4627 178.876 38.2438 175.323 35.305C172.401 32.7944 170.38 29.0613 170.044 25.1988C169.819 20.0591 170.856 15.9211 174.373 12.0236C180.406 5.77557 189.953 6.32965 196.466 11.3109Z" fill="#DFDFDF"/>
<path d="M116.177 12.5909C116.361 16.1864 116.448 19.7697 116.437 23.3695C116.437 23.8517 116.437 24.3339 116.436 24.8161C116.436 26.0647 116.433 27.3132 116.431 28.5617C116.428 29.844 116.427 31.1263 116.426 32.4086C116.423 34.9094 116.419 37.4101 116.414 39.9109C113.749 39.9109 111.083 39.9109 108.337 39.9109C108.259 38.8918 108.18 37.8726 108.1 36.8226C107.943 36.9941 107.786 37.1656 107.624 37.3422C105.65 39.278 103.244 39.9161 100.512 40C96.6165 39.8718 93.339 38.5391 90.6431 35.6932C89.3465 34.1235 88.195 31.9527 87.9065 29.9332C88.5389 29.5157 89.1728 29.1007 89.807 28.686C90.0721 28.511 90.0721 28.511 90.3425 28.3324C91.4782 27.5917 92.6217 26.9538 93.8456 26.3697C93.8977 26.5363 93.9497 26.7029 94.0034 26.8745C94.8506 29.4093 95.9711 31.0329 98.3594 32.3088C100.056 32.9752 101.651 33.0248 103.363 32.4128C105.547 31.4461 107.014 29.8098 107.888 27.6058C108.529 25.2996 108.27 22.778 107.149 20.6682C106.825 20.2194 106.825 20.2194 106.481 19.8367C106.224 19.5427 106.224 19.5427 105.961 19.2428C106.281 18.2844 106.707 18.1564 107.569 17.6438C107.709 17.5597 107.849 17.4756 107.993 17.3889C108.443 17.119 108.895 16.8519 109.347 16.585C109.64 16.41 109.933 16.2347 110.226 16.0593C110.664 15.7975 111.102 15.5359 111.54 15.2754C112.825 14.5112 114.095 13.7248 115.364 12.9331C115.939 12.5909 115.939 12.5909 116.177 12.5909Z" fill="#DFDFDF"/>
<path d="M72.2271 1.42539C74.971 1.42539 77.7148 1.42539 80.5419 1.42539C80.5419 4.40446 80.5419 7.38352 80.5419 10.4529C81.7962 10.4529 83.0505 10.4529 84.3429 10.4529C84.3429 12.5696 84.3429 14.6863 84.3429 16.8671C83.0886 16.7887 81.8342 16.7103 80.5419 16.6295C80.5531 17.1043 80.5642 17.579 80.5758 18.068C80.6113 19.6391 80.6348 21.2102 80.6526 22.7816C80.6638 23.7341 80.6789 24.6862 80.7031 25.6385C80.7264 26.5581 80.7392 27.4773 80.7447 28.3972C80.7487 28.7475 80.7563 29.0978 80.7679 29.448C80.8547 32.1854 80.8547 32.1854 80.098 33.0586C79.5483 33.4308 79.0113 33.7066 78.4038 33.9718C78.1703 34.1175 77.9369 34.2632 77.6964 34.4133C77.0371 34.8069 76.3772 35.1994 75.7163 35.5902C75.4846 35.7291 75.253 35.868 75.0143 36.011C74.7912 36.1432 74.5681 36.2753 74.3383 36.4115C74.1379 36.5305 73.9375 36.6496 73.7311 36.7723C73.1773 37.0601 73.1773 37.0601 72.2271 37.2977C72.2271 30.5556 72.2271 23.8135 72.2271 16.8671C70.8943 16.8671 69.5616 16.8671 68.1885 16.8671C68.1885 14.7504 68.1885 12.6337 68.1885 10.4529C69.5212 10.4529 70.854 10.4529 72.2271 10.4529C72.2271 7.4738 72.2271 4.49473 72.2271 1.42539Z" fill="#DFDFDF"/>
<path d="M133.511 0.382901C133.511 2.49961 133.511 4.61631 133.511 6.79716C132.728 6.95395 131.944 7.11074 131.136 7.27229C130.385 8.02325 130.331 8.1171 130.26 9.09857C130.235 9.43665 130.211 9.77474 130.186 10.1231C131.283 10.1231 132.381 10.1231 133.511 10.1231C133.511 12.1614 133.511 14.1997 133.511 16.2998C132.414 16.2998 131.316 16.2998 130.186 16.2998C130.198 16.6941 130.21 17.0884 130.223 17.4946C130.266 18.9604 130.294 20.4261 130.316 21.8923C130.327 22.5267 130.344 23.1598 130.365 23.794C130.394 24.7064 130.407 25.618 130.418 26.5308C130.43 26.8132 130.442 27.0957 130.455 27.3866C130.456 29.3147 130.456 29.3147 129.688 30.1341C129.081 30.5659 128.471 30.9231 127.81 31.2663C127.445 31.4983 127.445 31.4983 127.072 31.7349C126.87 31.854 126.668 31.9732 126.46 32.096C126.235 32.2289 126.01 32.3618 125.778 32.4987C125.552 32.631 125.326 32.7633 125.093 32.8996C124.86 33.0374 124.628 33.1752 124.388 33.3172C122.678 34.3232 122.678 34.3232 121.871 34.5923C121.871 28.5557 121.871 22.5192 121.871 16.2998C120.852 16.2998 119.833 16.2998 118.782 16.2998C118.782 14.2614 118.782 12.2231 118.782 10.1231C119.802 10.1231 120.821 10.1231 121.871 10.1231C121.856 9.62329 121.841 9.12351 121.826 8.60859C121.834 6.1998 122.285 4.27614 124.009 2.52099C126.638 0.3072 130.276 0.382901 133.511 0.382901Z" fill="#DFDFDF"/>
<path d="M158.218 10.5982C158.297 9.89264 158.375 9.18707 158.456 8.46012C161.278 8.46012 164.1 8.46012 167.008 8.46012C167.665 12.7526 167.665 12.7526 167.008 14.3992C165.411 16.0899 163.213 17.0735 161.135 18.0569C160.465 18.3849 159.846 18.7349 159.22 19.1394C158.456 19.6257 158.456 19.6257 157.981 19.6257C157.758 19.2733 157.553 18.9095 157.357 18.5418C156.172 16.5058 154.662 15.3336 152.398 14.711C150.34 14.4539 148.469 14.7858 146.756 15.988C144.716 17.6744 143.773 19.7335 143.407 22.354C143.325 24.3446 144.134 26.1521 144.915 27.9404C144.064 28.4522 143.213 28.9612 142.361 29.4698C141.999 29.6877 141.999 29.6877 141.629 29.9101C141.397 30.0487 141.164 30.1872 140.924 30.33C140.71 30.4582 140.496 30.5863 140.276 30.7183C139.752 30.9951 139.316 31.1571 138.738 31.2664C136.276 26.7721 135.809 22.1963 137.075 17.25C138.163 13.5877 140.532 11.033 143.755 9.10971C148.626 6.48325 154.049 7.08934 158.218 10.5982Z" fill="#DFDFDF"/>
<path d="M167.008 16.2998C167.008 23.7474 167.008 31.1951 167.008 38.8684C164.264 38.8684 161.52 38.8684 158.693 38.8684C158.615 37.9277 158.537 36.9869 158.456 36.0177C158.191 36.2724 157.927 36.5272 157.654 36.7897C155.063 39.0676 151.901 39.0209 148.637 38.911C145.176 38.6784 142.351 36.6258 140.03 34.1914C139.688 33.642 139.688 33.642 139.718 33.18C140.007 32.5013 140.388 32.3113 141.015 31.9317C141.347 31.7289 141.347 31.7289 141.685 31.522C141.918 31.3837 142.151 31.2455 142.391 31.103C142.737 30.8915 142.737 30.8915 143.09 30.6757C144.795 29.6434 144.795 29.6434 145.627 29.3658C146.167 29.6897 146.167 29.6897 146.771 30.1528C148.582 31.5372 150.285 31.7166 152.517 31.5039C154.52 30.9907 156.354 29.9317 157.49 28.1734C158.168 26.9134 158.548 25.8397 158.29 24.402C158.094 23.2935 157.938 22.3274 158.456 21.2886C159.94 19.8969 161.838 19.0155 163.643 18.1118C164.569 17.6355 165.453 17.1037 166.337 16.5547C166.771 16.2998 166.771 16.2998 167.008 16.2998Z" fill="#DFDFDF"/>
<path d="M107.225 11.9998C107.442 12.1919 107.657 12.3862 107.862 12.5909C107.94 11.8854 108.019 11.1798 108.1 10.4529C110.765 10.4529 113.431 10.4529 116.177 10.4529C116.177 10.6096 116.177 10.7664 116.177 10.928C115.634 11.3112 115.634 11.3112 114.872 11.766C114.736 11.848 114.6 11.93 114.459 12.0145C114.013 12.2826 113.566 12.5482 113.118 12.8137C112.659 13.0873 112.201 13.3614 111.743 13.6356C111.437 13.8184 111.131 14.0011 110.825 14.1835C109.934 14.716 109.054 15.2611 108.181 15.8231C107.989 15.9461 107.796 16.0691 107.597 16.1958C107.249 16.4195 106.902 16.6462 106.557 16.8763C105.838 17.3329 105.374 17.5839 104.512 17.5557C104.043 17.4103 103.577 17.2572 103.113 17.0972C101.3 16.5134 99.5134 16.6667 97.7952 17.461C95.6768 18.6572 94.5113 20.2405 93.8456 22.5687C93.8342 22.7476 93.8227 22.9265 93.8109 23.1108C93.7143 24.1247 93.5966 24.7347 92.8321 25.4436C92.1228 25.9162 91.4023 26.3341 90.6534 26.7409C90.4009 26.8868 90.1484 27.0327 89.8882 27.1831C88.1041 28.2044 88.1041 28.2044 87.1938 28.5078C86.1547 24.212 86.5421 19.7841 88.6628 15.8723C90.6596 12.7805 93.5961 10.6583 97.1771 9.80697C100.885 9.12467 104.287 9.55807 107.225 11.9998Z" fill="#DFDFDF"/>
<path d="M130.186 31.7415C130.186 34.3286 130.186 36.9157 130.186 39.5811C127.442 39.5811 124.698 39.5811 121.871 39.5811C121.871 38.6404 121.871 37.6996 121.871 36.7303C122.617 36.0708 123.142 35.7383 124.009 35.305C124.511 35.0019 125.011 34.6954 125.509 34.3863C126.038 34.0683 126.567 33.751 127.097 33.4341C127.372 33.269 127.646 33.1038 127.92 32.9386C128.178 32.7842 128.435 32.6299 128.701 32.4709C128.935 32.3307 129.169 32.1904 129.41 32.046C129.948 31.7415 129.948 31.7415 130.186 31.7415Z" fill="#DFDFDF"/>
<path d="M80.5418 34.4469C80.5418 36.1716 80.5418 37.8964 80.5418 39.6733C77.7979 39.6733 75.0541 39.6733 72.2271 39.6733C72.8604 39.04 73.3797 38.6608 74.1378 38.2053C74.3734 38.0629 74.6091 37.9205 74.8519 37.7738C75.0979 37.6265 75.344 37.4792 75.5975 37.3274C76.081 37.0361 76.5645 36.7447 77.0479 36.4532C77.394 36.2453 77.394 36.2453 77.7471 36.0331C78.3404 35.6732 78.9283 35.3062 79.5145 34.935C80.3043 34.4469 80.3043 34.4469 80.5418 34.4469Z" fill="#DFDFDF"/>
<path d="M15.9243 1.66295C16.6062 2.08912 16.9913 2.37152 17.3497 3.08834C17.3497 3.55872 17.3497 4.02909 17.3497 4.51373C15.4682 4.63132 15.4682 4.63132 13.5486 4.75129C13.9394 5.46823 13.9394 5.46823 14.4544 5.67186C15.1837 5.71353 15.5469 5.36384 16.1619 4.98886C16.83 4.94431 16.83 4.94431 17.3497 4.98886C17.1308 5.72505 16.9526 6.11204 16.3549 6.60727C15.5015 6.96759 14.9438 7.00236 14.0238 6.88938C13.2166 6.53911 12.7461 6.2689 12.3794 5.45007C12.1168 4.50067 12.0749 3.94612 12.3905 2.99925C13.362 1.63919 14.2862 1.39139 15.9243 1.66295ZM13.5486 3.3259C13.5486 3.4043 13.5486 3.48269 13.5486 3.56347C14.411 3.56347 15.2734 3.56347 16.1619 3.56347C15.5839 2.56694 15.5839 2.56694 14.8552 2.50927C14.1765 2.62805 13.9601 2.78448 13.5486 3.3259Z" fill="#DFDFDF"/>
<path d="M6.89673 0C7.28871 0 7.68069 0 8.08455 0C8.08455 0.627172 8.08455 1.25434 8.08455 1.90052C8.24135 1.82212 8.39814 1.74373 8.55968 1.66295C9.04038 1.598 9.04038 1.598 9.59903 1.57387C9.87372 1.55641 9.87372 1.55641 10.154 1.5386C10.6978 1.66295 10.6978 1.66295 11.2379 2.13901C11.7777 3.07578 11.7566 3.76762 11.7074 4.82554C11.7031 5.00147 11.6988 5.1774 11.6944 5.35867C11.6833 5.78985 11.6663 6.22088 11.648 6.65182C11.256 6.65182 10.8641 6.65182 10.4602 6.65182C10.4486 6.41724 10.4369 6.18266 10.4249 5.94098C10.3983 5.48438 10.3983 5.48438 10.3711 5.01856C10.3546 4.71539 10.338 4.41221 10.321 4.09985C10.3005 3.30676 10.3005 3.30676 9.74751 2.85078C9.13568 2.89 9.13568 2.89 8.55968 3.08834C8.22321 3.76129 8.23985 4.38893 8.18849 5.13734C8.16858 5.41969 8.14868 5.70204 8.12817 5.99295C8.11378 6.21037 8.09938 6.4278 8.08455 6.65182C7.69257 6.65182 7.30059 6.65182 6.89673 6.65182C6.89673 4.45672 6.89673 2.26162 6.89673 0Z" fill="#DFDFDF"/>
<path d="M4.52106 0C4.91304 0 5.30502 0 5.70889 0C5.70889 0.548775 5.70889 1.09755 5.70889 1.66295C6.02247 1.66295 6.33606 1.66295 6.65915 1.66295C6.65915 1.97654 6.65915 2.29013 6.65915 2.61321C6.34556 2.61321 6.03197 2.61321 5.70889 2.61321C5.70889 3.94595 5.70889 5.27869 5.70889 6.65182C5.3169 6.65182 4.92492 6.65182 4.52106 6.65182C4.52106 5.31908 4.52106 3.98634 4.52106 2.61321C4.20747 2.61321 3.89389 2.61321 3.5708 2.61321C3.5708 2.29963 3.5708 1.98604 3.5708 1.66295C3.88439 1.66295 4.19797 1.66295 4.52106 1.66295C4.52106 1.11418 4.52106 0.565405 4.52106 0Z" fill="#DFDFDF"/>
</svg>
