<svg width="181" height="40" viewBox="0 0 181 40" fill="none" xmlns="http://www.w3.org/2000/svg">
<path d="M152.986 8.94342C155.05 8.94342 157.115 8.94342 159.241 8.94342C159.594 9.37456 159.594 9.37456 159.954 9.81441C160.12 10.0084 160.286 10.2015 160.454 10.3934C160.542 10.4952 160.631 10.5969 160.719 10.6987C160.763 10.7492 160.807 10.7996 160.853 10.8516C161.399 11.4807 161.939 12.1154 162.476 12.7521C162.745 13.071 163.017 13.3878 163.289 13.7042C163.573 14.0337 163.852 14.3659 164.126 14.7038C164.351 14.9816 164.583 15.2508 164.824 15.5154C165.128 15.8499 165.415 16.1955 165.7 16.5469C166.033 16.9532 166.377 17.3501 166.72 17.7481C166.921 17.9818 167.122 18.2159 167.323 18.45C167.362 18.4959 167.401 18.5419 167.442 18.5892C167.741 18.9384 168.039 19.2893 168.335 19.6408C168.605 19.9597 168.877 20.2765 169.149 20.5929C169.432 20.9224 169.712 21.2546 169.985 21.5925C170.267 21.9394 170.562 22.2709 170.862 22.6011C171.102 22.8701 171.326 23.1497 171.553 23.4294C171.786 23.7122 172.026 23.9887 172.267 24.2649C172.569 24.6118 172.868 24.9609 173.157 25.319C173.436 25.6631 173.728 25.9915 174.026 26.3186C174.285 26.6095 174.529 26.9113 174.773 27.2143C174.916 27.3942 174.916 27.3942 175.077 27.5509C175.104 21.4104 175.13 15.2699 175.157 8.94342C176.803 8.94342 178.449 8.94342 180.145 8.94342C180.145 16.9652 180.145 24.987 180.145 33.2519C178.081 33.2519 176.017 33.2519 173.89 33.2519C173.655 32.9644 173.419 32.677 173.177 32.3809C173.011 32.1869 172.845 31.9938 172.677 31.8019C172.589 31.7003 172.501 31.5988 172.412 31.4972C172.368 31.4468 172.324 31.3963 172.279 31.3444C171.795 30.7867 171.312 30.2279 170.846 29.6541C170.521 29.2541 170.185 28.865 169.847 28.4765C169.531 28.1136 169.219 27.7479 168.909 27.3802C168.644 27.0662 168.377 26.7539 168.11 26.4423C167.768 26.0451 167.429 25.6463 167.092 25.2463C166.825 24.9311 166.557 24.6175 166.288 24.3044C165.947 23.9074 165.608 23.5087 165.271 23.1087C165.001 22.7898 164.73 22.4731 164.457 22.1567C164.174 21.8271 163.895 21.4949 163.621 21.157C163.396 20.8792 163.164 20.61 162.923 20.3454C162.619 20.0109 162.332 19.6653 162.047 19.3139C161.714 18.9075 161.37 18.5105 161.027 18.1124C160.788 17.8346 160.549 17.5561 160.311 17.2778C160.11 17.0436 159.909 16.8096 159.708 16.576C159.275 16.0725 158.847 15.5659 158.429 15.049C158.293 14.8787 158.293 14.8787 158.133 14.7236C158.107 20.8379 158.081 26.9522 158.054 33.2519C156.381 33.2519 154.709 33.2519 152.986 33.2519C152.986 25.2301 152.986 17.2083 152.986 8.94342Z" fill="#DFDFDF"/>
<path d="M59.2361 8.94342C60.8822 8.94342 62.5284 8.94342 64.2245 8.94342C64.2245 12.2357 64.2245 15.5281 64.2245 18.9202C69.8684 18.9202 75.5124 18.9202 81.3275 18.9202C81.3275 15.6278 81.3275 12.3355 81.3275 8.94342C82.9736 8.94342 84.6198 8.94342 86.3158 8.94342C86.395 9.0226 86.395 9.0226 86.4049 9.18779C86.4048 9.26137 86.4048 9.33494 86.4048 9.41074C86.4049 9.4953 86.4051 9.57986 86.4052 9.66698C86.405 9.76102 86.4048 9.85506 86.4045 9.95196C86.4046 10.1005 86.4046 10.1005 86.4047 10.252C86.4049 10.5281 86.4046 10.8041 86.4042 11.0802C86.4039 11.3774 86.404 11.6747 86.404 11.9719C86.4041 12.4873 86.4038 13.0027 86.4034 13.5181C86.4027 14.2633 86.4025 15.0085 86.4024 15.7537C86.4023 16.9626 86.4017 18.1715 86.401 19.3804C86.4003 20.5551 86.3997 21.7297 86.3994 22.9043C86.3993 23.0129 86.3993 23.0129 86.3993 23.1236C86.3992 23.4865 86.3991 23.8495 86.399 24.2125C86.3982 27.2256 86.3967 30.2387 86.395 33.2519C84.7227 33.2519 83.0504 33.2519 81.3275 33.2519C81.3275 29.9595 81.3275 26.6672 81.3275 23.2751C75.6835 23.2751 70.0395 23.2751 64.2245 23.2751C64.2245 26.5674 64.2245 29.8598 64.2245 33.2519C62.5783 33.2519 60.9321 33.2519 59.2361 33.2519C59.2361 25.2301 59.2361 17.2083 59.2361 8.94342Z" fill="#DFDFDF"/>
<path d="M103.34 8.94342C105.038 8.94342 106.737 8.94342 108.487 8.94342C109.399 10.6777 109.399 10.6777 109.827 11.5353C109.876 11.6318 109.924 11.7283 109.972 11.8247C110.072 12.0242 110.172 12.2238 110.271 12.4234C110.396 12.6732 110.521 12.9229 110.646 13.1726C111.145 14.1698 111.639 15.1693 112.117 16.1768C112.581 17.1514 113.069 18.1142 113.554 19.0785C114.113 20.1903 114.669 21.3027 115.203 22.427C115.668 23.4033 116.156 24.3678 116.642 25.3338C117.205 26.4521 117.764 27.5711 118.301 28.7021C118.562 29.2511 118.831 29.7954 119.105 30.3383C119.145 30.4172 119.185 30.4961 119.226 30.5774C119.388 30.8985 119.55 31.2195 119.713 31.5403C119.834 31.7794 119.954 32.0189 120.075 32.2584C120.112 32.3311 120.149 32.4038 120.187 32.4788C120.221 32.5458 120.255 32.6128 120.289 32.6819C120.319 32.7406 120.349 32.7993 120.38 32.8597C120.443 33.0143 120.443 33.0143 120.443 33.2519C119.777 33.2703 119.11 33.2843 118.444 33.2929C118.134 33.297 117.825 33.3026 117.515 33.3116C117.216 33.3203 116.917 33.3249 116.617 33.327C116.504 33.3284 116.39 33.3313 116.277 33.3356C115.642 33.3587 115.215 33.3123 114.726 32.8665C114.599 32.7312 114.473 32.5957 114.346 32.46C114.127 32.2949 113.9 32.153 113.663 32.0147C113.602 31.9785 113.541 31.9424 113.479 31.9052C111.928 30.9994 110.253 30.4044 108.487 30.0846C108.413 30.0706 108.34 30.0567 108.265 30.0423C107.526 29.9129 106.8 29.8946 106.052 29.8966C105.987 29.8966 105.923 29.8967 105.857 29.8968C103.534 29.905 101.223 30.3684 99.1432 31.4307C99.0874 31.4591 99.0316 31.4875 98.9741 31.5167C98.1843 31.925 97.415 32.379 96.8287 33.0617C96.5587 33.2959 96.4375 33.3002 96.0848 33.2968C96.0338 33.2969 95.9827 33.2969 95.9302 33.297C95.7626 33.2967 95.5952 33.2936 95.4276 33.2905C95.311 33.2898 95.1944 33.2892 95.0778 33.2888C94.7718 33.2873 94.4658 33.2834 94.1597 33.279C93.8471 33.275 93.5345 33.2732 93.2219 33.2712C92.6091 33.2669 91.9963 33.2602 91.3835 33.2519C91.543 32.8447 91.7291 32.4533 91.918 32.0592C91.9562 31.9795 91.9943 31.8999 92.0336 31.8178C92.5406 30.7639 93.0677 29.7199 93.5932 28.6751C94.0916 27.6837 94.5897 26.6926 95.0654 25.6901C95.5868 24.5914 96.1349 23.5062 96.6812 22.4198C97.1797 21.4285 97.6778 20.4374 98.1535 19.4348C98.6748 18.3362 99.2229 17.2509 99.7693 16.1645C100.309 15.0904 100.846 14.0152 101.361 12.9292C101.75 12.1112 102.156 11.3018 102.563 10.4924C102.819 9.98123 103.076 9.47007 103.34 8.94342ZM105.874 13.8526C105.851 13.9006 105.828 13.9485 105.804 13.9979C105.692 14.2316 105.58 14.4652 105.468 14.6989C105.404 14.8319 105.404 14.8319 105.339 14.9675C105.11 15.4444 104.881 15.921 104.65 16.3969C104.558 16.5864 104.466 16.7759 104.374 16.9654C104.351 17.0131 104.328 17.0607 104.304 17.1098C103.912 17.9192 103.533 18.7339 103.157 19.5507C102.861 20.1891 102.552 20.8189 102.234 21.4462C101.927 22.0532 101.643 22.6691 101.365 23.2894C101.141 23.7843 100.905 24.2707 100.661 24.7556C100.199 25.6725 99.755 26.598 99.3081 27.5221C99.139 27.8717 98.9689 28.2209 98.7981 28.5697C98.725 28.72 98.652 28.8703 98.5791 29.0206C98.5293 29.1215 98.5293 29.1215 98.4784 29.2244C98.4049 29.3769 98.3377 29.5325 98.2723 29.6887C98.2984 29.741 98.3245 29.7932 98.3514 29.8471C98.3817 29.814 98.412 29.7809 98.4431 29.7469C99.5644 28.5246 99.5644 28.5246 100.093 28.1051C100.168 28.0446 100.242 27.9841 100.319 27.9217C102.271 26.356 104.456 25.4308 106.996 25.6665C109.635 26.0138 111.604 27.793 113.396 29.6095C113.503 29.374 113.503 29.374 113.389 29.1559C113.344 29.0692 113.299 28.9825 113.253 28.8932C113.229 28.8458 113.205 28.7984 113.18 28.7495C113.128 28.6473 113.076 28.5452 113.023 28.4432C112.911 28.2272 112.801 28.0103 112.691 27.7934C112.636 27.6836 112.58 27.5739 112.524 27.4641C112.291 27.0065 112.067 26.5451 111.847 26.0811C111.777 25.9348 111.708 25.7885 111.638 25.6422C111.603 25.5675 111.567 25.4929 111.531 25.416C111.311 24.9555 111.089 24.4965 110.867 24.0372C110.482 23.241 110.098 22.4442 109.716 21.6467C109.51 21.2176 109.304 20.7888 109.096 20.3606C108.593 19.3224 108.096 18.2819 107.606 17.2376C107.423 16.8485 107.24 16.4595 107.057 16.0704C107.007 15.9652 106.958 15.8599 106.909 15.7546C106.752 15.4222 106.595 15.0901 106.438 14.7582C106.399 14.6749 106.36 14.5915 106.319 14.5056C106.266 14.3929 106.266 14.3929 106.211 14.2779C106.164 14.1798 106.164 14.1798 106.117 14.0798C106.043 13.9189 106.043 13.9189 105.874 13.8526Z" fill="#DFDFDF"/>
<path d="M118.463 8.94342C120.397 8.94342 122.331 8.94342 124.323 8.94342C124.885 10.1552 125.448 11.3669 126.009 12.5793C126.483 13.6031 126.958 14.6267 127.436 15.649C127.479 15.7429 127.523 15.8369 127.568 15.9336C127.773 16.3719 127.978 16.8101 128.183 17.2481C129.081 19.1641 129.081 19.1641 129.5 20.1152C129.855 20.9195 130.232 21.7119 130.615 22.5031C131.195 23.7051 131.761 24.9135 132.32 26.1256C132.389 26.2749 132.458 26.4242 132.527 26.5735C132.775 27.1103 133.023 27.6473 133.27 28.1843C133.683 27.414 134.091 26.6428 134.455 25.8476C134.701 25.3121 134.967 24.7869 135.232 24.2605C135.535 23.6564 135.838 23.052 136.141 22.4476C136.223 22.2843 136.304 22.1211 136.386 21.9579C136.82 21.0949 137.249 20.2306 137.663 19.3585C138.165 18.3026 138.691 17.2591 139.216 16.2149C139.695 15.2634 140.167 14.3096 140.624 13.3477C141.003 12.5521 141.395 11.7635 141.79 10.9757C141.914 10.729 142.037 10.4822 142.16 10.2354C142.239 10.0779 142.318 9.92049 142.396 9.76307C142.433 9.68952 142.47 9.61597 142.508 9.54019C142.541 9.47315 142.575 9.40611 142.609 9.33705C142.639 9.27801 142.669 9.21897 142.699 9.15815C142.772 9.0226 142.772 9.0226 142.851 8.94342C143.009 8.93598 143.167 8.93413 143.325 8.93443C143.427 8.93444 143.528 8.93445 143.633 8.93445C143.744 8.93486 143.856 8.93527 143.967 8.93569C144.081 8.93584 144.194 8.93595 144.308 8.93603C144.607 8.93633 144.906 8.93711 145.206 8.93799C145.511 8.9388 145.816 8.93916 146.121 8.93956C146.72 8.94041 147.319 8.94176 147.919 8.94342C147.873 9.21055 147.808 9.43114 147.687 9.6732C147.655 9.7376 147.623 9.802 147.59 9.86836C147.555 9.93827 147.52 10.0082 147.483 10.0802C147.446 10.1552 147.409 10.2301 147.37 10.3073C147.245 10.5588 147.119 10.81 146.993 11.0612C146.902 11.2414 146.812 11.4215 146.723 11.6017C146.503 12.0408 146.283 12.4797 146.063 12.9186C145.807 13.4307 145.55 13.9432 145.294 14.4556C144.836 15.3715 144.378 16.2872 143.919 17.2027C143.475 18.0882 143.032 18.9739 142.589 19.8597C142.561 19.9141 142.534 19.9685 142.506 20.0245C142.451 20.1341 142.397 20.2437 142.342 20.3533C142.315 20.4074 142.288 20.4615 142.26 20.5172C142.219 20.5981 142.219 20.5981 142.178 20.6807C141.754 21.5279 141.33 22.3749 140.906 23.222C140.753 23.5274 140.601 23.8329 140.448 24.1384C140.182 24.6701 139.915 25.2017 139.649 25.7332C139.561 25.9088 139.473 26.0843 139.385 26.2599C138.916 27.1978 138.441 28.1316 137.949 29.0579C137.723 29.4841 137.507 29.9152 137.293 30.3475C137.252 30.4296 137.211 30.5116 137.169 30.5962C137.042 30.8512 136.915 31.1063 136.789 31.3614C136.619 31.7032 136.449 32.0448 136.279 32.3864C136.221 32.5034 136.221 32.5034 136.161 32.6228C136.126 32.6941 136.091 32.7653 136.054 32.8387C136.023 32.9015 135.992 32.9643 135.959 33.029C135.883 33.1727 135.883 33.1727 135.804 33.2519C135.641 33.2593 135.478 33.2612 135.315 33.2608C135.239 33.2609 135.239 33.2609 135.161 33.2609C134.991 33.2608 134.822 33.2602 134.653 33.2596C134.536 33.2594 134.419 33.2593 134.302 33.2592C133.993 33.2589 133.685 33.2582 133.376 33.2573C133.061 33.2565 132.747 33.2561 132.432 33.2557C131.814 33.2549 131.196 33.2535 130.578 33.2519C129.974 32.1182 129.394 30.9738 128.821 29.8245C128.727 29.6361 128.633 29.4477 128.538 29.2593C128.337 28.8568 128.136 28.4542 127.935 28.0515C127.644 27.4679 127.352 26.8844 127.061 26.3009C126.587 25.3518 126.112 24.4027 125.638 23.4535C125.596 23.3686 125.596 23.3686 125.553 23.282C125.352 22.8805 125.152 22.479 124.951 22.0775C124.722 21.6186 124.493 21.1596 124.264 20.7007C124.235 20.6441 124.207 20.5876 124.178 20.5293C123.705 19.583 123.233 18.6368 122.76 17.6906C122.469 17.1092 122.179 16.5278 121.889 15.9463C121.69 15.5475 121.49 15.1487 121.291 14.75C121.177 14.5209 121.062 14.2917 120.948 14.0625C120.498 13.1612 120.045 12.2628 119.569 11.3751C119.321 10.9097 119.087 10.4364 118.854 9.96283C118.801 9.85641 118.747 9.75062 118.692 9.64526C118.662 9.58932 118.633 9.53337 118.603 9.47573C118.563 9.39964 118.563 9.39964 118.522 9.32202C118.463 9.18097 118.463 9.18097 118.463 8.94342Z" fill="#DFDFDF"/>
<path d="M35.707 10.4151C35.9501 10.5744 36.1476 10.7742 36.3514 10.9795C36.3967 11.0247 36.442 11.0699 36.4887 11.1164C36.5846 11.2123 36.6804 11.3083 36.776 11.4045C36.9196 11.549 37.064 11.6926 37.2086 11.8361C37.7513 12.3782 38.2565 12.9302 38.7283 13.5359C38.7735 13.5927 38.8188 13.6494 38.8653 13.7079C40.8142 16.1629 42.3694 19.0168 42.7665 22.1666C42.7753 22.2329 42.7841 22.2993 42.7931 22.3676C43.1495 25.5555 42.1785 28.6685 40.2328 31.1932C40.18 31.2627 40.1272 31.3322 40.0729 31.4038C39.1583 32.5791 38.09 33.6923 36.9072 34.5979C36.8546 34.6385 36.8021 34.6791 36.748 34.721C34.9519 36.1021 32.9484 37.3117 30.8103 38.0819C30.755 38.0371 30.6996 37.9923 30.6426 37.9461C30.5706 37.888 30.4985 37.8299 30.4243 37.7701C30.3168 37.6833 30.3168 37.6833 30.2071 37.5947C30.0307 37.4481 30.0307 37.4481 29.8601 37.3692C29.9655 37.0529 30.1197 36.984 30.3896 36.7902C33.0404 34.8121 34.6732 31.6461 35.7195 28.5802C35.7452 28.505 35.7709 28.4298 35.7974 28.3523C37.5421 23.1602 37.52 16.9969 35.0662 12.0414C34.9236 11.755 34.7738 11.4837 34.5924 11.2192C34.4526 11.0021 34.4526 11.0021 34.4526 10.7646C34.6303 10.6938 34.8083 10.6248 34.987 10.5567C35.0624 10.5264 35.0624 10.5264 35.1392 10.4955C35.5158 10.3543 35.5158 10.3543 35.707 10.4151Z" fill="#DFDFDF"/>
<path d="M13.4698 1.18374C13.6137 1.30715 13.6137 1.30715 13.7519 1.45592C13.9195 1.63469 14.055 1.7586 14.2617 1.89636C14.2617 1.97475 14.2617 2.05314 14.2617 2.13391C14.0876 2.26295 13.9161 2.37692 13.7321 2.49022C9.52136 5.19906 6.95305 10.4031 5.91027 15.1622C5.72631 16.0393 5.56235 16.9195 5.47261 17.8117C5.46383 17.8948 5.45505 17.978 5.44601 18.0637C5.17713 21.2068 5.39891 24.6921 6.96219 27.502C7.05622 27.7092 7.05622 27.7092 6.97704 27.9468C6.85343 27.9737 6.72968 27.9999 6.60588 28.0259C6.53698 28.0406 6.46809 28.0553 6.3971 28.0705C5.99607 28.1361 5.99607 28.1361 5.78933 28.1051C5.59633 27.9446 5.59633 27.9446 5.39343 27.7142C5.35627 27.672 5.31911 27.6298 5.28082 27.5863C4.09912 26.2226 3.05953 24.7174 2.22621 23.1168C2.18988 23.0475 2.15356 22.9783 2.11613 22.907C1.18423 21.1105 0.458097 19.1893 0.167512 17.1782C0.158581 17.1179 0.14965 17.0576 0.140448 16.9955C-0.119984 15.1705 -0.0397643 13.3105 0.563415 11.5564C0.579618 11.5077 0.595822 11.459 0.612516 11.4089C1.19669 9.66903 2.15506 8.13803 3.41391 6.80556C3.50336 6.70029 3.59245 6.59473 3.68115 6.48884C4.76943 5.25316 6.18596 4.2871 7.61048 3.47998C7.73144 3.40557 7.73144 3.40557 7.85483 3.32966C9.1866 2.52402 10.6528 1.94777 12.1188 1.43613C12.2666 1.38401 12.2666 1.38401 12.4173 1.33085C12.509 1.29976 12.6006 1.26866 12.6951 1.23663C12.776 1.20909 12.8569 1.18155 12.9403 1.15318C13.1586 1.1033 13.2643 1.10141 13.4698 1.18374Z" fill="#DFDFDF"/>
<path d="M3.80988 29.2928C3.86059 29.3364 3.86059 29.3364 3.91233 29.3809C4.06278 29.5101 4.21345 29.639 4.36414 29.7679C4.40798 29.8056 4.45182 29.8433 4.49699 29.8822C6.976 31.9971 10.2112 33.1233 13.3907 33.6478C13.4619 33.6597 13.5332 33.6717 13.6065 33.684C14.7858 33.8727 15.9553 33.9081 17.1469 33.91C17.2513 33.9105 17.2513 33.9105 17.3578 33.9109C18.3411 33.9131 19.3042 33.8524 20.2794 33.7269C20.3694 33.7154 20.4594 33.7038 20.5522 33.6919C24.059 33.21 27.5048 32.0788 30.2293 29.7559C30.3929 29.6267 30.5414 29.5349 30.7313 29.4512C30.8269 29.5986 30.9206 29.7473 31.0134 29.8966C31.0657 29.9793 31.1181 30.0619 31.172 30.1471C31.3105 30.4574 31.3174 30.5562 31.2064 30.8764C31.0574 31.1358 30.8867 31.3766 30.7115 31.6188C30.6619 31.6883 30.6123 31.7579 30.5613 31.8295C29.8814 32.7736 29.1434 33.6628 28.3559 34.5187C28.2844 34.5991 28.213 34.6797 28.1418 34.7603C28.1058 34.8009 28.0697 34.8414 28.0325 34.8832C27.9307 34.9976 27.8292 35.1123 27.7277 35.227C27.564 35.3897 27.564 35.3897 27.4057 35.3897C27.4057 35.442 27.4057 35.4943 27.4057 35.5481C27.3033 35.6542 27.3033 35.6542 27.1533 35.7807C27.0948 35.8301 27.0363 35.8795 26.9761 35.9304C26.8752 36.0155 26.8752 36.0155 26.7722 36.1024C26.6993 36.1673 26.6263 36.2322 26.5511 36.2991C24.0202 38.5347 20.7657 39.9952 17.3696 39.9971C17.2756 39.998 17.1817 39.999 17.085 40C15.1262 40.0032 13.205 39.4001 11.4881 38.482C11.385 38.4269 11.2816 38.3724 11.1778 38.3186C9.41105 37.401 7.91739 36.1008 6.51192 34.7068C6.44319 34.6388 6.37445 34.5708 6.30364 34.5008C5.83505 34.0298 5.40959 33.5352 4.99759 33.0143C4.95893 32.9661 4.92027 32.9179 4.88044 32.8683C4.35025 32.2046 3.87744 31.5085 3.41398 30.7973C3.36172 30.7189 3.30946 30.6405 3.25562 30.5597C3.25562 30.07 3.55334 29.6898 3.80988 29.2928Z" fill="#DFDFDF"/>
<path d="M29.6227 0.78783C29.7068 0.817627 29.7068 0.817627 29.7927 0.848027C31.2949 1.39344 32.6953 2.21628 33.9776 3.16325C34.0223 3.19607 34.067 3.2289 34.1131 3.26272C34.4165 3.48687 34.713 3.71868 35.007 3.95505C35.0873 4.01905 35.1676 4.08305 35.2504 4.14898C35.9051 4.68426 36.5027 5.27792 37.1003 5.87518C37.1415 5.91632 37.1827 5.95745 37.2252 5.99983C38.5634 7.33831 38.5634 7.33831 38.5849 7.66169C38.5539 7.74498 38.5229 7.82827 38.4909 7.91408C38.4523 8.02447 38.4523 8.02447 38.413 8.13708C38.3364 8.35435 38.2565 8.56992 38.1742 8.78507C37.8642 8.67292 37.6085 8.52459 37.3329 8.34462C34.6877 6.68406 31.4481 6.01459 28.3558 5.93457C28.2902 5.93283 28.2246 5.9311 28.157 5.92931C26.2535 5.88746 24.3608 6.01642 22.4964 6.40965C22.4167 6.42639 22.3371 6.44313 22.255 6.46037C19.0123 7.15723 15.8385 8.50529 13.3115 10.6854C13.2469 10.7394 13.1823 10.7934 13.1157 10.849C12.5364 11.3475 12.0554 11.9196 11.5695 12.5066C11.2777 12.4093 11.2133 12.3026 11.035 12.0562C10.9597 11.9553 10.9597 11.9553 10.8829 11.8524C10.7454 11.569 10.7665 11.4615 10.8569 11.1605C10.9592 10.9134 11.0767 10.676 11.1983 10.438C11.2334 10.3688 11.2685 10.2997 11.3046 10.2285C12.1242 8.63744 13.0996 7.13842 14.2616 5.7762C14.3365 5.68665 14.4114 5.59705 14.4862 5.50742C15.2385 4.61137 16.0346 3.81236 16.9538 3.08407C17.0125 3.03405 17.0712 2.98404 17.1316 2.93251C20.6585 -0.0381386 25.3116 -0.749499 29.6227 0.78783Z" fill="#DFDFDF"/>
</svg>
