<svg width="237" height="40" viewBox="0 0 237 40" fill="none" xmlns="http://www.w3.org/2000/svg">
<path d="M35.2267 0H4.77327C2.13206 0 0 2.13206 0 4.77327V35.2267C0 37.8679 2.13206 40 4.77327 40H35.2267C37.8679 40 40 37.8679 40 35.2267V4.77327C40 2.13206 37.8679 0 35.2267 0ZM30.2307 20.35C29.9125 21.2729 29.3715 22.6412 28.576 23.93C27.7327 25.3142 26.794 26.2689 25.8075 26.7462C25.2983 27.0008 24.7733 27.1281 24.2482 27.1281C24.0414 27.1281 23.8345 27.1122 23.6436 27.0644C22.9117 26.9212 22.2116 26.5553 21.5752 25.9348C20.4614 24.8528 19.5068 23.0231 18.6317 20.3182C17.7566 17.5975 16.961 16.4519 16.4519 15.9586C16.1973 15.72 16.0382 15.6563 15.9586 15.6404C15.9109 15.6404 15.8313 15.6404 15.6722 15.7041C15.2267 15.9109 14.6698 16.5155 14.1289 17.3747C13.6038 18.2021 13.0947 19.2522 12.6969 20.366C12.4105 21.1615 11.5354 21.5752 10.7239 21.2888C10.3262 21.1456 10.008 20.8751 9.83294 20.4932C9.65792 20.1273 9.642 19.7136 9.76929 19.3317C10.1034 18.4089 10.6762 17.0406 11.4877 15.7518C12.3628 14.3675 13.3174 13.4288 14.3198 12.9515C15.0358 12.6173 15.7677 12.506 16.4996 12.6333C17.2474 12.7605 17.9475 13.1424 18.5839 13.747C19.7136 14.829 20.6842 16.6746 21.5593 19.3795C22.4344 22.1002 23.214 23.2617 23.7232 23.7391C23.9777 23.9936 24.1368 24.0414 24.1846 24.0414C24.2164 24.0414 24.28 24.0573 24.4232 23.9777C24.8528 23.7709 25.3938 23.1663 25.9029 22.323C26.4121 21.4956 26.8894 20.4296 27.2713 19.3317C27.5418 18.5362 28.4169 18.1066 29.2283 18.3771C29.6261 18.5044 29.9443 18.7908 30.1352 19.1567C30.3103 19.5227 30.3421 19.9364 30.2148 20.3182L30.2307 20.35Z" fill="#DFDFDF"/>
<path d="M72.5858 20.5246C73.2222 19.5063 73.5404 18.2652 73.5404 16.8173C73.5404 15.3694 73.2222 14.1443 72.6017 13.0942C71.9812 12.0441 71.0902 11.2326 69.9446 10.6757C68.799 10.1029 67.4466 9.83244 65.8714 9.83244H57.2V30.803H62.2755V23.6272H64.869L68.7035 30.803H74.2405L69.8968 22.8157C71.0583 22.2907 71.9494 21.5111 72.5699 20.5087L72.5858 20.5246ZM62.2914 13.9215H64.7895C65.5532 13.9215 66.1896 14.0329 66.6988 14.2557C67.2238 14.4625 67.6057 14.7807 67.8762 15.2103C68.1466 15.6399 68.2739 16.165 68.2739 16.8173C68.2739 17.4697 68.1466 17.9947 67.8762 18.4084C67.6057 18.8221 67.2238 19.1244 66.6988 19.3313C66.1896 19.5222 65.5532 19.6336 64.7895 19.6336H62.2914V13.9215Z" fill="#DFDFDF"/>
<path d="M85.1708 9.83244H80.0952V30.803H85.1708V9.83244Z" fill="#DFDFDF"/>
<path d="M101.734 25.1865H101.559L96.8656 9.83244H91.1854L98.2658 30.803H105.012L112.092 9.83244H106.412L101.734 25.1865Z" fill="#DFDFDF"/>
<path d="M118.107 30.803H132.745V26.6821H123.182V22.3702H131.997V18.2493H123.182V13.9534H132.745V9.83244H118.107V30.803Z" fill="#DFDFDF"/>
<path d="M155.036 20.5246C155.672 19.5063 155.991 18.2652 155.991 16.8173C155.991 15.3694 155.672 14.1443 155.052 13.0942C154.431 12.0441 153.54 11.2326 152.395 10.6757C151.249 10.1029 149.897 9.83244 148.321 9.83244H139.65V30.803H144.726V23.6272H147.319L151.154 30.803H156.691L152.347 22.8157C153.508 22.2907 154.399 21.5111 155.02 20.5087L155.036 20.5246ZM144.742 13.9215H147.24C148.003 13.9215 148.64 14.0329 149.149 14.2557C149.674 14.4625 150.056 14.7807 150.326 15.2103C150.597 15.6399 150.724 16.165 150.724 16.8173C150.724 17.4697 150.597 17.9947 150.326 18.4084C150.056 18.8221 149.674 19.1244 149.149 19.3313C148.64 19.5222 148.003 19.6336 147.24 19.6336H144.742V13.9215Z" fill="#DFDFDF"/>
<path d="M177.343 20.6527C176.802 20.1276 176.134 19.6821 175.338 19.3162C174.543 18.9343 173.636 18.6479 172.602 18.4092L170.804 17.9956C170.326 17.9001 169.897 17.7728 169.515 17.6296C169.133 17.4864 168.799 17.3432 168.528 17.1523C168.258 16.9613 168.051 16.7545 167.908 16.5158C167.765 16.2772 167.717 16.0067 167.717 15.6885C167.717 15.3067 167.844 14.9725 168.051 14.6702C168.274 14.3679 168.592 14.1293 169.037 13.9701C169.483 13.7951 170.024 13.7156 170.676 13.7156C171.663 13.7156 172.426 13.9224 172.967 14.352C173.508 14.7657 173.811 15.3544 173.874 16.1022H178.727C178.727 14.7975 178.377 13.6519 177.709 12.6655C177.041 11.679 176.118 10.9153 174.909 10.3584C173.715 9.80149 172.299 9.53101 170.676 9.53101C169.053 9.53101 167.669 9.80149 166.428 10.3425C165.187 10.8834 164.216 11.6472 163.5 12.6336C162.8 13.6042 162.45 14.7498 162.45 16.0385C162.45 17.6296 162.96 18.8866 164.01 19.8253C165.06 20.7481 166.476 21.4323 168.306 21.846L170.501 22.3551C171.265 22.5302 171.901 22.7211 172.379 22.9438C172.872 23.1507 173.238 23.3894 173.493 23.6757C173.731 23.9621 173.858 24.2963 173.858 24.694C173.858 25.1236 173.715 25.4896 173.461 25.8237C173.206 26.1578 172.824 26.4124 172.347 26.5874C171.87 26.7784 171.297 26.8579 170.613 26.8579C169.865 26.8579 169.212 26.7466 168.64 26.5079C168.083 26.2692 167.637 25.9351 167.319 25.4896C167.001 25.0441 166.81 24.4713 166.778 23.803H161.925C161.941 25.4419 162.323 26.7943 163.039 27.8762C163.771 28.9423 164.773 29.7537 166.078 30.2788C167.383 30.8038 168.91 31.0743 170.66 31.0743C172.411 31.0743 173.906 30.8197 175.131 30.3106C176.372 29.8014 177.327 29.0855 177.995 28.1308C178.664 27.1761 178.998 26.0465 178.998 24.7259C178.998 23.8826 178.855 23.1348 178.568 22.4506C178.282 21.7824 177.884 21.1777 177.327 20.6527H177.343Z" fill="#DFDFDF"/>
<path d="M190.406 9.83244H185.33V30.803H190.406V9.83244Z" fill="#DFDFDF"/>
<path d="M210.613 11.0894C209.069 10.2461 207.224 9.83244 205.091 9.83244H197.343V30.803H205.091C207.224 30.803 209.053 30.3893 210.613 29.5461C212.156 28.7028 213.349 27.4936 214.193 25.9343C215.036 24.3591 215.45 22.4816 215.45 20.3018C215.45 18.122 215.036 16.2605 214.193 14.6853C213.349 13.1101 212.156 11.9168 210.613 11.0735V11.0894ZM209.738 23.9295C209.324 24.8364 208.703 25.4888 207.892 25.8865C207.08 26.2843 206.078 26.4753 204.916 26.4753H202.434V14.1443H204.853C206.062 14.1443 207.064 14.3511 207.892 14.7489C208.719 15.1467 209.34 15.799 209.769 16.6901C210.199 17.5811 210.406 18.7903 210.406 20.3018C210.406 21.8134 210.199 23.0226 209.769 23.9295H209.738Z" fill="#DFDFDF"/>
<path d="M222.18 30.803H236.802V26.6821H227.255V22.3702H236.054V18.2493H227.255V13.9534H236.802V9.83244H222.18V30.803Z" fill="#DFDFDF"/>
</svg>
