<svg width="151" height="40" viewBox="0 0 151 40" fill="none" xmlns="http://www.w3.org/2000/svg">
<path d="M69.6378 26.2955C69.6859 34.1255 63.8346 39.9546 55.8362 39.9997C47.8379 40.0448 41.9407 34.2819 41.8926 26.4519C41.8445 18.622 47.6704 12.7929 55.6689 12.7478C63.6671 12.7028 69.5897 18.4656 69.6378 26.2955ZM50.2313 26.405C50.2526 29.8864 52.6122 32.3217 55.7889 32.3037C58.9656 32.2858 61.3204 29.8239 61.2991 26.3425C61.2776 22.861 58.9179 20.426 55.7161 20.4439C52.5143 20.462 50.2098 22.9236 50.2313 26.405Z" fill="#DFDFDF"/>
<path d="M84.9056 20.4234L84.9525 28.0519C84.971 31.0557 86.5285 32.0568 88.5744 32.0452C90.1008 32.0367 91.6971 31.1786 92.9623 30.3996L95.7924 36.8738C93.4003 38.5596 90.9244 39.8023 86.814 39.8254C79.9886 39.8638 76.9099 35.6808 76.87 29.1653L76.8165 20.469L72.0869 20.4957L72.0417 13.131L76.7712 13.1044L76.7246 5.50169L84.8199 5.45606L84.8667 13.0587L93.5313 13.0099L93.5765 20.3746L84.9118 20.4234H84.9056Z" fill="#DFDFDF"/>
<path d="M122.149 18.0483L115.653 22.5931C114.336 20.9107 112.844 20.1286 110.822 20.14C107.924 20.1562 105.459 22.4083 105.482 26.1C105.504 29.792 107.939 32.0164 110.843 32C112.788 31.9891 114.431 31.138 115.754 29.4663L122.279 34.0141C119.77 37.5354 116.003 39.6608 111.135 39.6883C102.803 39.7352 97.0177 34.0482 96.9691 26.1416C96.9205 18.2352 102.635 12.4833 110.968 12.4364C115.836 12.4089 119.603 14.4983 122.155 18.042L122.149 18.0483Z" fill="#DFDFDF"/>
<path d="M141.255 11.8212C146.348 11.7925 150.325 15.4743 150.363 21.6194L150.47 39.0404L142.334 39.0864L142.246 24.6691C142.226 21.5016 140.707 19.7824 138.186 19.7967C135.922 19.8094 134.065 21.3906 134.086 24.8526L134.174 39.1388L126.038 39.1847L125.798 0.193494L133.934 0.147636L134.028 15.3763C135.647 12.9588 138.061 11.8392 141.255 11.8212Z" fill="#DFDFDF"/>
<path d="M38.4214 0.68387L29.3731 0.73487L28.6592 29.5461L23.4598 11.831C21.4446 4.91433 19.3272 -0.0445304 11.3733 0.000301537C2.76409 0.0488276 -0.154083 7.71912 0.00621474 16.2081L0.425262 39.8931L9.4735 39.8421C9.4735 39.8421 8.84652 18.5626 8.82662 15.3224C8.79988 10.9674 9.55676 8.83741 11.4211 8.8269C13.4509 8.81547 14.7331 12.4375 15.9078 16.1768L23.4021 39.7637L31.6295 39.7173L36.0709 39.6923L38.4214 0.68387Z" fill="#DFDFDF"/>
</svg>
