<svg width="236" height="40" viewBox="0 0 236 40" fill="none" xmlns="http://www.w3.org/2000/svg">
<path d="M84.7261 40H72.0877V39.0504C74.4171 38.6812 75.8545 36.36 75.8545 33.0892V6.91071C75.8545 3.64 74.4171 1.31884 72.0877 0.949565V0H84.7261V0.949565C82.3967 1.31884 80.9099 3.64 80.9099 6.91071V17.6174H101.402V6.91071C101.402 3.64 99.9647 1.31884 97.6353 0.949565V0H110.274V0.949565C107.944 1.31884 106.457 3.64 106.457 6.91071V33.0892C106.457 36.36 107.944 38.734 110.274 39.0504V40H97.6353V39.0504C99.9647 38.6812 101.402 36.36 101.402 33.0892V22.1392H80.9099V33.0892C80.9099 36.36 82.3967 38.734 84.7261 39.0504V40Z" fill="#DFDFDF"/>
<path d="M67.7556 0.434814H37.0418V4.95655H49.5756C49.7686 5.67317 49.8704 6.47577 49.8704 7.34553V33.0892C49.8704 36.36 48.433 38.6812 46.1036 39.0504V40H58.742V39.0504C56.4126 38.734 54.9256 36.36 54.9256 33.0892V7.34553C54.9256 6.47577 55.0308 5.67317 55.229 4.95655H67.7556V0.434814Z" fill="#DFDFDF"/>
<path d="M146.031 0.434814V4.95655H125.976C125.778 5.67317 125.672 6.47577 125.672 7.34553V17.6174H142.625V22.1392H125.672V33.0892C125.672 33.9558 125.777 34.7592 125.974 35.4782H146.769V40H116.85V39.0504C119.18 38.6812 120.617 36.36 120.617 33.0892V7.34553C120.617 4.07481 119.18 1.75366 116.85 1.38438V0.434816L146.031 0.434814Z" fill="#DFDFDF"/>
<path d="M166.958 0.949565C165.846 1.12597 164.925 1.7478 164.267 2.7058L183.94 30.8348V6.91071C183.94 3.64 182.503 1.31884 180.173 0.949565V0H192.812V0.949565C190.482 1.31884 188.995 3.64 188.995 6.91071V33.0892C188.995 36.36 190.482 38.734 192.812 39.0504V40H180.173V39.0504C181.167 38.893 181.998 38.3806 182.624 37.591L163.142 9.73479V33.0892C163.142 36.36 164.629 38.734 166.958 39.0504V40H154.32V39.0504C156.649 38.6812 158.087 36.36 158.087 33.0892V6.91071C158.087 3.64 156.649 1.31884 154.32 0.949565V0H166.958V0.949565Z" fill="#DFDFDF"/>
<path d="M15.1582 0.434814L0 40H5.1095L5.76868 38.3238L10.8192 24.8522H10.7867L17.94 5.80437L25.1502 24.8522H25.101L30.6134 39.456L30.8274 40H36.1072L21.0058 0.434814H15.1582Z" fill="#DFDFDF"/>
<path d="M199.607 40L214.766 0.434814H220.612L235.714 40H230.434L230.22 39.456L224.708 24.8522H224.758L217.548 5.80437L210.394 24.8522H210.426L205.376 38.3238L204.716 40H199.607Z" fill="#DFDFDF"/>
</svg>
