<svg width="202" height="40" viewBox="0 0 202 40" fill="none" xmlns="http://www.w3.org/2000/svg">
<path d="M45.9615 6.29983H50.589V16.7575H62.4323V6.29983H67.0598V32.1826H62.4323V21.019H50.589V32.1826H45.9615V6.29983Z" fill="#DFDFDF"/>
<path d="M70.6416 9.30643C70.6416 7.81621 71.8442 6.61358 73.622 6.61358C75.3214 6.61358 76.524 7.81621 76.524 9.30643C76.524 10.8228 75.3214 11.9731 73.622 11.9731C71.8181 11.9993 70.6416 10.8228 70.6416 9.30643ZM71.3214 14.7706H75.7659V32.1826H71.3214V14.7706Z" fill="#DFDFDF"/>
<path d="M78.5633 35.4506C78.5633 33.7773 79.7659 32.1825 81.6483 31.4244V31.3459C80.0797 30.7969 79.2169 29.908 79.2169 28.6008C79.2169 27.0321 80.8378 25.8818 82.7202 25.6204V25.5419C80.5764 24.3131 79.5306 22.6399 79.5306 20.47C79.5306 16.7836 82.6941 14.2738 87.4 14.2738H89.3086C91.3739 14.2738 92.0014 13.4895 92.0014 10.692H96.3413V11.9992C96.3413 14.0908 94.7204 15.2934 92.0798 15.4503V15.5287C93.9622 16.5483 95.0603 18.3261 95.0603 20.6007C95.0603 24.3916 92.0537 26.7184 87.1386 26.7184C86.485 26.7184 85.6222 26.64 84.7856 26.5093C84.1581 26.6923 83.5568 27.0844 83.5568 27.6596C83.5568 28.3916 84.1843 28.7838 85.1778 28.7838H90.7988C94.7727 28.7838 96.9165 30.4832 96.9165 33.6989C96.9165 37.7513 93.4393 39.9997 87.0602 39.9997C81.596 40.0258 78.5633 38.3526 78.5633 35.4506ZM92.6027 34.1957C92.6027 32.9407 91.5831 32.2348 89.7007 32.2871L85.0209 32.3917C83.8706 32.3917 82.9294 33.4113 82.9294 34.614C82.9294 36.1303 84.4457 36.8885 87.3739 36.8885C90.7203 36.8624 92.6027 35.9212 92.6027 34.1957ZM90.668 20.6007C90.668 18.4046 89.4393 17.2019 87.2954 17.2019C85.2301 17.2019 84.0013 18.4046 84.0013 20.4961C84.0013 22.6399 85.2301 23.8164 87.4523 23.8164C89.5438 23.8426 90.668 22.7445 90.668 20.6007Z" fill="#DFDFDF"/>
<path d="M98.4329 35.4506C98.4329 33.7773 99.6355 32.1825 101.518 31.4244V31.3459C99.9492 30.7969 99.0865 29.908 99.0865 28.6008C99.0865 27.0321 100.707 25.8818 102.59 25.6204V25.5419C100.446 24.3131 99.4002 22.6399 99.4002 20.47C99.4002 16.7836 102.564 14.2738 107.27 14.2738H109.178C111.244 14.2738 111.845 13.4895 111.845 10.692H116.185V11.9992C116.185 14.0908 114.564 15.2934 111.923 15.4503V15.5287C113.806 16.5483 114.904 18.3261 114.904 20.6007C114.904 24.3916 111.897 26.7184 106.982 26.7184C106.328 26.7184 105.466 26.64 104.629 26.5093C104.002 26.6923 103.4 27.0844 103.4 27.6596C103.4 28.3916 104.028 28.7838 105.021 28.7838H110.642C114.616 28.7838 116.76 30.4832 116.76 33.6989C116.76 37.7513 113.283 39.9997 106.904 39.9997C101.492 40.0258 98.4329 38.3526 98.4329 35.4506ZM112.498 34.1957C112.498 32.9407 111.479 32.2348 109.596 32.2871L104.917 32.3917C103.766 32.3917 102.825 33.4113 102.825 34.614C102.825 36.1303 104.341 36.8885 107.27 36.8885C110.616 36.8624 112.498 35.9212 112.498 34.1957ZM110.538 20.6007C110.538 18.4046 109.309 17.2019 107.165 17.2019C105.1 17.2019 103.871 18.4046 103.871 20.4961C103.871 22.6399 105.1 23.8164 107.322 23.8164C109.413 23.8426 110.538 22.7445 110.538 20.6007Z" fill="#DFDFDF"/>
<path d="M117.021 27.6335L121.152 26.4308C121.597 28.2871 122.852 29.4636 125.074 29.4636C126.852 29.4636 127.871 28.7315 127.871 27.4766C127.871 26.2217 127.008 25.5681 123.636 24.8622C119.531 24.0256 117.623 22.3262 117.623 19.5288C117.623 16.2085 120.263 14.1431 124.577 14.1431C128.368 14.1431 131.165 15.8163 132.263 18.6399L128.289 20.0517C127.74 18.5614 126.407 17.4111 124.499 17.4111C122.93 17.4111 121.989 18.0909 121.989 19.2151C121.989 20.3393 122.773 20.9929 126.224 21.7249C130.381 22.5877 132.263 24.2347 132.263 27.0844C132.263 30.5878 129.466 32.7577 124.917 32.7577C120.577 32.7839 117.701 30.8492 117.021 27.6335Z" fill="#DFDFDF"/>
<path d="M137.179 18.3262H133.701V14.7705H137.179V11.581C137.179 8.18221 138.852 5.77695 142.747 5.77695C143.976 5.77695 145.205 5.9861 146.198 6.43055L145.44 9.98616C144.891 9.77701 144.028 9.62014 143.401 9.62014C141.911 9.62014 141.545 10.5352 141.545 11.6594V14.7705H153.545V18.3262H141.623V32.2087H137.179V18.3262Z" fill="#DFDFDF"/>
<path d="M148.421 9.30643C148.421 7.81621 149.623 6.61358 151.401 6.61358C153.1 6.61358 154.303 7.81621 154.303 9.30643C154.303 10.8228 153.1 11.9731 151.401 11.9731C149.623 11.9993 148.421 10.8228 148.421 9.30643ZM149.1 14.7706H153.545V32.1826H149.1V14.7706Z" fill="#DFDFDF"/>
<path d="M157.466 23.555C157.466 17.568 161.336 14.1692 166.094 14.1692C171.532 14.1692 174.303 17.3327 174.303 22.9275V24.6269H161.989C162.146 27.1629 163.872 29.1237 166.408 29.1237C168.604 29.1237 169.911 27.738 170.46 26.1955L173.963 27.9734C172.813 30.7185 170.199 32.7839 166.225 32.7839C161.676 32.7839 157.466 29.908 157.466 23.555ZM169.754 21.6203C169.597 19.0582 168.552 17.4634 166.068 17.4634C163.689 17.4634 162.408 19.1628 162.146 21.6203H169.754Z" fill="#DFDFDF"/>
<path d="M177.022 6.29983H181.467V32.1826H177.022V6.29983Z" fill="#DFDFDF"/>
<path d="M184.526 23.4243C184.526 16.9144 188.447 14.2215 192.055 14.2215C194.67 14.2215 196.395 15.7379 197.336 17.1235H197.362V6.29983H201.807V32.1826H197.415V29.8296H197.389C196.552 31.1629 194.826 32.6793 192.186 32.6793C188.839 32.7055 184.526 30.1695 184.526 23.4243ZM197.441 23.3981C197.441 19.7118 195.741 17.8817 193.205 17.8817C190.774 17.8817 188.996 19.5026 188.996 23.4243C188.996 27.0583 190.8 29.0714 193.153 29.0714C195.741 29.0714 197.441 26.7969 197.441 23.3981Z" fill="#DFDFDF"/>
<path d="M34.641 16.8882L34.6149 16.5484C34.3273 13.3849 32.2881 7.45019 26.5886 7.45019C22.3533 7.45019 19.1637 11.6333 16.3401 15.2934C14.0917 18.2477 12.1309 20.7576 9.98708 20.7576C9.4119 20.7053 8.67987 20.4177 8.23542 19.7641C7.84326 19.1889 7.73868 18.4307 7.94783 17.5418C8.2877 16.1301 10.1701 14.7967 12.157 13.4111C13.2551 12.6529 14.3793 11.8686 15.1636 11.1104C17.412 8.94041 18.5624 7.37175 18.5624 4.83577C18.5624 2.29978 17.1767 1.04486 16.0002 0.52198C13.6734 -0.549931 10.2224 0.0775295 8.05241 1.95991C7.71253 2.2475 7.3988 2.53509 7.08507 2.82267C4.88896 4.78349 3.39874 6.11683 0 5.09721V9.20185C4.52294 11.1888 8.31385 7.3979 9.75178 5.64624C10.8498 4.4959 12.0263 3.81615 12.8891 3.81615H12.9414C13.3335 3.84229 13.6734 3.97302 13.9087 4.2606C14.3009 4.70505 14.4577 5.22794 14.3793 5.80311C14.2224 7.03188 12.9414 8.46981 10.6145 10.0385C7.8694 11.8686 3.29417 14.9536 2.92815 18.8229C2.66671 21.5942 4.10463 24.3916 6.35303 25.4635C11.608 27.9472 14.7976 23.6596 18.1702 19.1628C20.7585 15.6856 23.216 12.3653 26.6409 12.3653C29.7259 12.3653 30.8501 14.9013 30.8501 16.4961V16.8098L30.5625 16.8621C23.1115 18.1693 19.0591 25.1498 19.0591 28.3655C19.0591 31.5813 21.7781 34.3264 25.1507 34.3264C29.0723 34.3264 33.9351 30.9799 34.7195 21.568L34.7456 21.2282H37.8568V16.8882H34.641ZM30.5887 21.7249C29.9874 27.3721 27.0854 29.9865 25.3337 29.9865C24.5494 29.9865 23.4252 29.3329 23.4252 28.1041C23.4252 26.7185 25.4906 22.5615 30.0919 21.3066L30.641 21.1759L30.5887 21.7249Z" fill="#DFDFDF"/>
</svg>
