<svg width="150" height="45" viewBox="0 0 150 45" fill="none" xmlns="http://www.w3.org/2000/svg">
<path d="M12.4848 17.0301C15.1947 17.0301 16.9851 18.385 17.7595 21.0465L23.5179 19.1109C22.9372 16.8848 21.7275 14.9977 19.7919 13.4491C17.8563 11.9006 15.3399 11.078 12.3397 11.078C8.85553 11.078 5.90369 12.2877 3.53253 14.6589C1.16138 17.0785 0 20.0786 0 23.7079C0 27.3374 1.16138 30.3375 3.58092 32.7571C6.00046 35.1766 8.95232 36.338 12.5332 36.338C15.4852 36.338 17.953 35.5638 19.8887 33.9669C21.8243 32.4183 23.0825 30.5311 23.6632 28.3051L18.0013 26.4179C17.6626 27.5309 17.0336 28.4988 16.1626 29.273C15.2432 30.0472 14.0333 30.4344 12.5332 30.4344C10.7912 30.4344 9.33944 29.8537 8.17805 28.6438C7.01667 27.4341 6.43599 25.7888 6.43599 23.7079C6.43599 21.6755 7.01667 20.0303 8.17805 18.8205C9.33944 17.6591 10.7428 17.0301 12.4848 17.0301ZM37.2814 30.4827C35.5877 30.4827 34.1359 29.902 32.9746 28.6923C31.8132 27.5309 31.2325 25.8372 31.2325 23.7079C31.2325 21.5788 31.8132 19.9336 32.9746 18.7237C34.1359 17.5623 35.5877 16.9333 37.2814 16.9333C38.9266 16.9333 40.3784 17.5623 41.5398 18.7237C42.7011 19.9336 43.3302 21.5788 43.3302 23.7079C43.3302 25.8372 42.7011 27.5309 41.5398 28.6923C40.3784 29.902 38.9266 30.4827 37.2814 30.4827ZM37.2814 11.078C33.7004 11.078 30.7003 12.2877 28.329 14.6589C25.9579 17.0785 24.7965 20.0786 24.7965 23.7079C24.7965 27.3857 25.9579 30.3859 28.329 32.7571C30.7003 35.1766 33.7004 36.338 37.2814 36.338C40.8623 36.338 43.8142 35.1766 46.1853 32.7571C48.5564 30.3859 49.7663 27.3857 49.7663 23.7079C49.7663 20.0786 48.5564 17.0785 46.1853 14.6589C43.8142 12.2877 40.8623 11.078 37.2814 11.078ZM59.71 44.8065V33.2895C61.1132 35.2251 63.3876 36.1928 66.5814 36.1928C69.8719 36.1928 72.5819 35.0314 74.6628 32.6603C76.7435 30.3375 77.8081 27.3374 77.8081 23.6596C77.8081 20.0303 76.7919 17.0785 74.8563 14.7557C72.8722 12.4329 70.2108 11.2715 66.8233 11.2715C65.0812 11.2715 63.5813 11.6103 62.3231 12.2877C61.0165 12.9652 60.097 13.7395 59.5163 14.7073V11.8038H53.2739V44.8065H59.71ZM71.4688 23.7079C71.4688 25.7888 70.8883 27.4341 69.7752 28.6438C68.6622 29.8537 67.2588 30.4344 65.5652 30.4344C63.8231 30.4344 62.4198 29.8537 61.3067 28.5955C60.1455 27.3857 59.6131 25.7405 59.6131 23.7079C59.6131 21.6755 60.1455 20.0786 61.3067 18.8689C62.4198 17.6591 63.8231 17.0301 65.5652 17.0301C67.2588 17.0301 68.6622 17.6591 69.7752 18.8205C70.8883 20.0303 71.4688 21.6755 71.4688 23.7079ZM89.5576 45L104.51 11.8038H97.6389L91.7835 25.7405L85.4444 11.8038H78.2341L88.3479 32.6118L82.7346 45H89.5576Z" fill="#DFDFDF"/>
<path d="M102.389 31.2097C102.389 32.5727 102.861 33.6735 103.805 34.6172C104.748 35.5607 105.849 35.9802 107.16 35.9802C108.471 35.9802 109.624 35.5607 110.567 34.6172C111.511 33.6735 111.983 32.5727 111.983 31.2097C111.983 29.899 111.511 28.7982 110.567 27.8545C109.624 26.9108 108.471 26.439 107.16 26.439C105.849 26.439 104.748 26.9108 103.805 27.8545C102.861 28.7982 102.389 29.899 102.389 31.2097Z" fill="#DFDFDF"/>
<path d="M116.853 29.1313C116.853 31.067 117.579 32.7606 119.079 34.164C120.579 35.6157 122.563 36.2931 125.031 36.2931C128.176 36.2931 130.499 35.1317 132.047 32.7606C132.047 33.9703 132.096 34.9382 132.289 35.6157H138.193C137.999 34.551 137.903 33.2929 137.903 31.8412V20.1307C137.903 17.5176 137.032 15.34 135.386 13.6462C133.693 11.9525 131.079 11.0815 127.547 11.0815C124.547 11.0815 122.176 11.9042 120.385 13.4527C118.546 15.0495 117.53 16.8884 117.337 18.9208L123.047 20.1307C123.143 19.066 123.579 18.1466 124.353 17.3724C125.127 16.6464 126.24 16.2594 127.595 16.2594C128.854 16.2594 129.87 16.5497 130.547 17.1304C131.225 17.7111 131.612 18.4853 131.612 19.3563C131.612 20.3242 130.983 20.9049 129.821 21.0501L123.966 21.9211C121.837 22.2598 120.143 23.034 118.837 24.2439C117.482 25.5021 116.853 27.0989 116.853 29.1313ZM126.386 31.5024C125.418 31.5024 124.644 31.2605 124.111 30.7282C123.53 30.196 123.289 29.5184 123.289 28.7441C123.289 27.0505 124.256 26.0343 126.24 25.744L131.612 24.9213V25.9858C131.612 27.9699 131.079 29.3733 130.112 30.2443C129.144 31.1153 127.886 31.5024 126.386 31.5024ZM149.253 35.6157V11.8074H142.817V35.6157H149.253ZM142.043 4.01644C142.043 5.08104 142.43 6.00046 143.205 6.77473C143.979 7.54898 144.898 7.93611 146.011 7.93611C147.076 7.93611 148.044 7.54898 148.818 6.77473C149.592 6.00046 149.979 5.08104 149.979 4.01644C149.979 2.90346 149.592 1.93564 148.818 1.16138C148.044 0.387127 147.076 0 146.011 0C144.898 0 143.979 0.435517 143.205 1.20977C142.43 1.98402 142.043 2.95185 142.043 4.01644Z" fill="#DFDFDF"/>
</svg>
