<svg width="373" height="88" viewBox="0 0 373 88" fill="none" xmlns="http://www.w3.org/2000/svg">
<path d="M1.19209e-07 72.2V5.96046e-06H34.2V3.80001H41.8V7.60001H45.6V15.2H49.4V26.6H45.6V34.2H41.8V38H34.2V41.8H7.6V72.2H1.19209e-07ZM38 30.4V26.6H41.8V15.2H38V11.4H34.2V7.60001H7.6V34.2H34.2V30.4H38ZM54.8398 64.6V49.4H58.6398V45.6H66.2398V41.8H85.2398V38H89.0398V30.4H85.2398V26.6H66.2398V30.4H62.4398V34.2H54.8398V26.6H58.6398V22.8H66.2398V19H85.2398V22.8H92.8398V30.4H96.6398V64.6H100.44V72.2H92.8398V68.4H89.0398V64.6H85.2398V60.8H89.0398V45.6H85.2398V49.4H66.2398V53.2H62.4398V64.6H85.2398V68.4H81.4398V72.2H62.4398V68.4H58.6398V64.6H54.8398ZM109.671 60.8V57H105.871V30.4H109.671V26.6H113.471V22.8H117.271V19H136.271V22.8H140.071V26.6H121.071V30.4H117.271V34.2H113.471V53.2H117.271V57H121.071V60.8H140.071V64.6H136.271V68.4H117.271V64.6H113.471V60.8H109.671ZM105.871 79.8V72.2H113.471V76H117.271V79.8H140.071V76H143.871V60.8H140.071V53.2H143.871V34.2H140.071V26.6H143.871V19H151.471V79.8H147.671V83.6H140.071V87.4H117.271V83.6H109.671V79.8H105.871ZM164.511 34.2V41.8H194.911V34.2H191.111V30.4H187.311V26.6H172.111V30.4H168.311V34.2H164.511ZM160.711 64.6V57H156.911V34.2H160.711V26.6H164.511V22.8H168.311V19H191.111V22.8H194.911V26.6H198.711V34.2H202.511V49.4H164.511V57H168.311V60.8H172.111V64.6H191.111V60.8H194.911V57H202.511V64.6H198.711V68.4H191.111V72.2H168.311V68.4H164.511V64.6H160.711ZM211.734 64.6V26.6H204.134V19H211.734V7.60001H219.334V19H234.534V26.6H219.334V64.6H234.534V72.2H219.334V68.4H215.534V64.6H211.734ZM243.722 34.2V41.8H274.122V34.2H270.322V30.4H266.522V26.6H251.322V30.4H247.522V34.2H243.722ZM239.922 64.6V57H236.122V34.2H239.922V26.6H243.722V22.8H247.522V19H270.322V22.8H274.122V26.6H277.922V34.2H281.722V49.4H243.722V57H247.522V60.8H251.322V64.6H270.322V60.8H274.122V57H281.722V64.6H277.922V68.4H270.322V72.2H247.522V68.4H243.722V64.6H239.922ZM287.145 64.6V49.4H290.945V45.6H298.545V41.8H317.545V38H321.345V30.4H317.545V26.6H298.545V30.4H294.745V34.2H287.145V26.6H290.945V22.8H298.545V19H317.545V22.8H325.145V30.4H328.945V64.6H332.745V72.2H325.145V68.4H321.345V64.6H317.545V60.8H321.345V45.6H317.545V49.4H298.545V53.2H294.745V64.6H317.545V68.4H313.745V72.2H294.745V68.4H290.945V64.6H287.145ZM357.176 26.6V22.8H360.976V19H372.376V26.6H357.176ZM338.176 72.2V64.6H345.776V26.6H338.176V19H353.376V26.6H357.176V30.4H353.376V64.6H364.776V72.2H338.176Z" fill="black"/>
</svg>
