<svg width="154" height="40" viewBox="0 0 154 40" fill="none" xmlns="http://www.w3.org/2000/svg">
<path d="M26.9707 40H16.1288L0 0H12.28L21.5753 23.8807L30.8227 0H43.1027L26.9707 40Z" fill="#DFDFDF"/>
<path d="M76.537 40H45.9535V0H76.3074V9.67156H56.9707V15.5804H74.7513V24.3591H56.9707V30.3284H76.537V40Z" fill="#DFDFDF"/>
<path d="M111.952 40H81.368V0H111.722V9.67156H92.3853V15.5804H110.172V24.3591H92.3853V30.3284H111.952V40Z" fill="#DFDFDF"/>
<path d="M133.023 0C139.294 0 144.362 1.83036 148.227 5.49107C152.054 9.1943 153.967 14.0306 153.967 20C153.967 25.9694 152.054 30.7855 148.227 34.4483C144.364 38.1516 139.296 40.0021 133.023 40H116.782V0H133.023ZM132.219 30.3284C135.395 30.3284 137.958 29.3718 139.907 27.4585C141.857 25.5453 142.833 23.058 142.835 19.9968C142.835 16.9313 141.859 14.4441 139.907 12.5351C137.956 10.6261 135.393 9.66943 132.219 9.66518H127.8V30.3221L132.219 30.3284Z" fill="#DFDFDF"/>
</svg>
