<svg width="224" height="40" viewBox="0 0 224 40" fill="none" xmlns="http://www.w3.org/2000/svg">
<path d="M26.0218 19.2121C26.7328 19.2521 27.4418 19.3021 28.1518 19.3491L28.7938 19.3891C32.9558 20.0201 37.0527 17.9101 38.9538 14.1541C40.8558 10.3991 40.1328 5.84708 37.1608 2.86708C34.1888 -0.113917 29.6398 -0.851917 25.8788 1.03808C22.1178 2.92808 19.9938 7.01908 20.6128 11.1821C20.6128 11.4061 20.6388 11.6301 20.6548 11.8531C20.7018 12.5621 20.7538 13.2771 20.7888 13.9861C20.8968 15.0821 20.7628 16.1891 20.3968 17.2281C20.1138 17.9401 19.6908 18.5881 19.1538 19.1341C18.6048 19.6801 17.9498 20.1081 17.2288 20.3881C16.1898 20.7541 15.0828 20.8881 13.9868 20.7801C13.2768 20.7451 12.5628 20.6941 11.8538 20.6461L11.1828 20.6041C7.01975 19.9861 2.92975 22.1091 1.03875 25.8691C-0.851249 29.6301 -0.115248 34.1791 2.86475 37.1521C5.84475 40.1251 10.3958 40.8501 14.1518 38.9501C17.9078 37.0511 20.0208 32.9551 19.3928 28.7931C19.3928 28.5791 19.3698 28.3671 19.3538 28.1511C19.3068 27.4411 19.2568 26.7321 19.2168 26.0231C19.1138 24.9241 19.2548 23.8171 19.6288 22.7801C19.9058 22.0661 20.3278 21.4171 20.8668 20.8731C21.4138 20.3381 22.0608 19.9171 22.7728 19.6361C23.8118 19.2571 24.9218 19.1121 26.0238 19.2121H26.0218Z" fill="#DFDFDF"/>
<path d="M9.81775 17.0061C13.7667 17.0061 16.9687 13.8041 16.9687 9.85508C16.9687 5.90608 13.7667 2.70408 9.81775 2.70408C5.86875 2.70408 2.66675 5.90608 2.66675 9.85508C2.66675 13.8041 5.86875 17.0061 9.81775 17.0061ZM30.2917 37.4781C34.2407 37.4781 37.4417 34.2771 37.4417 30.3281C37.4417 26.3781 34.2407 23.1771 30.2917 23.1771C26.3417 23.1771 23.1407 26.3781 23.1407 30.3281C23.1407 34.2771 26.3417 37.4781 30.2917 37.4781ZM61.2057 29.8781H56.0317V2.66708H61.2037V18.5341H60.3107C60.2668 16.7771 60.5317 15.0251 61.0937 13.3591C61.5237 12.0681 62.3368 10.9371 63.4227 10.1161C64.5767 9.33608 65.9508 8.94408 67.3428 8.99908H67.5667C69.8777 8.99908 71.6277 9.79408 72.8197 11.3831C74.0117 12.9711 74.6068 15.2811 74.6068 18.3101V29.8761H69.4357V17.8271C69.4907 16.7061 69.0877 15.6121 68.3187 14.7941C67.5648 14.0301 66.5257 13.6181 65.4537 13.6571C64.2977 13.6121 63.1777 14.0661 62.3797 14.9031C61.5757 15.7931 61.1527 16.9631 61.2037 18.1611V29.8761L61.2057 29.8781ZM88.5467 30.5681C86.9277 30.5991 85.3187 30.3071 83.8138 29.7091C82.5147 29.1831 81.3367 28.3971 80.3527 27.3991C79.4207 26.4521 78.6927 25.3251 78.2127 24.0861C77.7237 22.8371 77.4768 21.5071 77.4827 20.1661V19.3821C77.4778 18.0241 77.7307 16.6781 78.2287 15.4141C78.7267 14.1661 79.4707 13.0301 80.4147 12.0741C81.4098 11.0701 82.6017 10.2831 83.9167 9.76408C85.3937 9.18808 86.9688 8.90408 88.5537 8.92608C90.1338 8.90308 91.7017 9.18808 93.1727 9.76608C94.4797 10.2861 95.6657 11.0731 96.6537 12.0741C97.5997 13.0341 98.3438 14.1741 98.8408 15.4261C99.3388 16.6891 99.5917 18.0361 99.5877 19.3941V20.1781C99.5927 21.5191 99.3467 22.8481 98.8617 24.0981C98.3787 25.3371 97.6488 26.4641 96.7168 27.4121C95.7327 28.4091 94.5547 29.1951 93.2547 29.7211C91.7577 30.3141 90.1577 30.6021 88.5467 30.5681ZM88.5467 26.1331C89.6597 26.1671 90.7588 25.8771 91.7097 25.2981C92.5747 24.7421 93.2667 23.9541 93.7057 23.0231C94.1777 22.0031 94.4127 20.8901 94.3927 19.7661C94.4107 18.6341 94.1687 17.5131 93.6857 16.4891C93.2417 15.5521 92.5458 14.7581 91.6748 14.1951C90.7347 13.6151 89.6438 13.3231 88.5387 13.3551C87.4348 13.3271 86.3447 13.6191 85.4017 14.1951C84.5218 14.7501 83.8167 15.5441 83.3708 16.4851C82.8887 17.5091 82.6478 18.6301 82.6657 19.7621C82.6447 20.8861 82.8808 22.0001 83.3548 23.0191C83.7928 23.9511 84.4818 24.7391 85.3467 25.2941C86.3097 25.8781 87.4217 26.1691 88.5467 26.1331ZM112.7 30.5681C111.083 30.5991 109.476 30.3071 107.973 29.7091C106.673 29.1831 105.493 28.3971 104.506 27.3991C103.579 26.4501 102.852 25.3231 102.37 24.0861C101.885 22.8361 101.639 21.5071 101.645 20.1661V19.3821C101.633 18.0291 101.88 16.6871 102.37 15.4261C103.398 12.8281 105.462 10.7761 108.066 9.76408C109.543 9.18808 111.117 8.90308 112.701 8.92608C114.281 8.90308 115.85 9.18808 117.32 9.76608C119.906 10.7911 121.952 12.8401 122.973 15.4271C123.472 16.6901 123.724 18.0361 123.717 19.3941V20.1781C123.725 21.5191 123.479 22.8491 122.992 24.0981C122.512 25.3371 121.784 26.4641 120.852 27.4121C119.866 28.4101 118.686 29.1961 117.385 29.7211C115.896 30.3121 114.302 30.6001 112.7 30.5681ZM112.7 26.1331C113.815 26.1681 114.916 25.8781 115.869 25.2981C116.734 24.7431 117.424 23.9541 117.86 23.0231C118.333 22.0041 118.57 20.8901 118.551 19.7661C118.57 18.6341 118.327 17.5121 117.841 16.4891C117.4 15.5501 116.702 14.7551 115.829 14.1951C114.889 13.6141 113.798 13.3211 112.693 13.3551C111.589 13.3271 110.5 13.6181 109.557 14.1951C108.677 14.7501 107.973 15.5441 107.526 16.4851C107.042 17.5081 106.799 18.6301 106.816 19.7621C106.797 20.8861 107.033 22.0001 107.506 23.0191C107.944 23.9491 108.635 24.7371 109.499 25.2941C110.462 25.8781 111.575 26.1701 112.701 26.1341L112.7 26.1331ZM132.056 37.3261H126.878V9.63508H130.991V18.3511L130.359 18.3111C130.391 16.5121 130.83 14.7431 131.642 13.1371C132.324 11.8221 133.381 10.7401 134.679 10.0271C135.986 9.33408 137.446 8.98108 138.926 9.00008C140.263 8.98008 141.59 9.24808 142.815 9.78408C143.954 10.2941 144.97 11.0431 145.794 11.9811C146.639 12.9461 147.291 14.0651 147.715 15.2771C148.17 16.5751 148.397 17.9431 148.386 19.3191V20.1031C148.397 21.4961 148.175 22.8811 147.731 24.2011C147.319 25.4241 146.669 26.5541 145.818 27.5251C144.987 28.4681 143.965 29.2231 142.819 29.7401C141.584 30.2821 140.246 30.5491 138.898 30.5241C137.457 30.5421 136.033 30.2171 134.743 29.5761C133.462 28.9191 132.405 27.8951 131.708 26.6341C130.939 25.3051 130.506 23.5971 130.406 21.5101L132.047 23.9701L132.058 37.3281L132.056 37.3261ZM137.604 26.1931C138.632 26.2101 139.643 25.9261 140.51 25.3731C141.368 24.8131 142.049 24.0181 142.47 23.0831C142.94 22.0281 143.171 20.8821 143.144 19.7271C143.169 18.5781 142.933 17.4391 142.454 16.3941C141.598 14.4911 139.678 13.2931 137.592 13.3611C136.613 13.3511 135.646 13.5881 134.782 14.0501C133.925 14.5061 133.205 15.1831 132.696 16.0101C132.147 16.9521 131.875 18.0301 131.912 19.1191V20.6091C131.879 21.6621 132.164 22.7011 132.731 23.5891C133.261 24.3961 133.992 25.0511 134.852 25.4901C135.702 25.9351 136.646 26.1701 137.604 26.1731V26.1911V26.1931ZM153.443 29.8781C151.696 29.8771 150.279 28.4601 150.279 26.7131V26.5931C150.277 25.3111 151.048 24.1551 152.232 23.6641C153.416 23.1741 154.778 23.4461 155.683 24.3531C156.277 24.9471 156.61 25.7521 156.611 26.5911V26.7131C156.611 27.5531 156.277 28.3581 155.683 28.9531C155.088 29.5451 154.283 29.8771 153.443 29.8771V29.8781ZM168.262 30.5281C166.915 30.5441 165.58 30.2771 164.342 29.7441C163.18 29.2351 162.133 28.4931 161.269 27.5641C160.387 26.6081 159.703 25.4871 159.257 24.2661C158.778 22.9541 158.539 21.5671 158.552 20.1701V19.3861C158.542 18.0071 158.768 16.6361 159.218 15.3331C159.638 14.1111 160.296 12.9851 161.154 12.0191C161.994 11.0781 163.021 10.3241 164.17 9.80408C165.403 9.25508 166.741 8.98108 168.09 9.00008C169.558 8.97208 171.008 9.32508 172.297 10.0271C173.544 10.7401 174.55 11.8101 175.187 13.0981C175.95 14.7041 176.352 16.4581 176.363 18.2371L174.833 16.4891V2.66808H180.048V29.8781H175.9V21.2911H176.793C176.783 23.0761 176.349 24.8331 175.528 26.4171C174.832 27.7151 173.779 28.7871 172.493 29.5061C171.192 30.1991 169.736 30.5501 168.262 30.5281ZM169.412 26.1711C170.381 26.1831 171.337 25.9451 172.188 25.4821C173.031 25.0111 173.727 24.3151 174.198 23.4711C174.723 22.5211 174.985 21.4471 174.958 20.3621V18.8731C174.991 17.8241 174.718 16.7891 174.174 15.8931C173.674 15.0921 172.966 14.4421 172.125 14.0111C171.287 13.5781 170.355 13.3551 169.412 13.3611C168.368 13.3471 167.342 13.6371 166.46 14.1951C165.594 14.7471 164.898 15.5291 164.448 16.4491C163.941 17.4981 163.691 18.6521 163.718 19.8171C163.692 20.9851 163.948 22.1411 164.464 23.1891C165.397 25.0571 167.324 26.2191 169.412 26.1731V26.1711ZM193.64 30.5681C192.073 30.6031 190.516 30.2981 189.077 29.6741C187.832 29.1231 186.724 28.3021 185.835 27.2701C184.985 26.2761 184.328 25.1331 183.897 23.8981C183.467 22.6771 183.246 21.3921 183.247 20.0981V19.3941C183.251 18.0681 183.477 16.7521 183.917 15.5011C184.339 14.2711 184.991 13.1331 185.839 12.1491C186.715 11.1411 187.801 10.3381 189.021 9.79608C190.412 9.18808 191.918 8.88808 193.436 8.91808C195.622 8.91808 197.451 9.39608 198.926 10.3521C200.367 11.2701 201.522 12.5741 202.258 14.1171C203.005 15.6791 203.387 17.3911 203.375 19.1231V21.0251H185.447V17.8291H200.082L198.514 19.3981C198.542 18.2651 198.346 17.1381 197.938 16.0811C197.598 15.2201 197.008 14.4811 196.243 13.9611C195.396 13.4341 194.41 13.1741 193.414 13.2141C192.388 13.1771 191.375 13.4511 190.508 13.9991C189.695 14.5541 189.065 15.3381 188.7 16.2531C188.263 17.3671 188.054 18.5571 188.085 19.7541C188.065 20.9061 188.267 22.0511 188.681 23.1261C189.044 24.0621 189.68 24.8671 190.508 25.4351C191.444 26.0261 192.538 26.3171 193.644 26.2701C194.714 26.3151 195.775 26.0511 196.699 25.5101C197.419 25.0891 197.961 24.4201 198.223 23.6271H203.03C202.757 24.9631 202.17 26.2151 201.316 27.2781C200.454 28.3341 199.348 29.1641 198.094 29.6971C196.686 30.2941 195.169 30.5911 193.64 30.5681ZM215.246 29.8781H210.185L203.846 9.63508H209.174L215.246 29.8771V29.8781ZM217.179 29.8781H211.69V25.6111H217.179V29.8781ZM218.485 29.8781H213.757L218.971 9.65508H223.958L218.485 29.8771V29.8781Z" fill="#DFDFDF"/>
</svg>
